<?xml version="1.0" encoding="UTF-8"?>
<svg id="Layer_2" data-name="Layer 2" xmlns="http://www.w3.org/2000/svg" viewBox="0 0 302.54 148.49">
  <defs>
    <style>
      .cls-1 {
        fill: #f56833;
      }
    </style>
  </defs>
  <g id="Lag_1" data-name="Lag 1">
    <g>
      <path class="cls-1" d="m106.78,65.89c-2.46,7.04-7.51,12.72-12.66,17.94s-11.04,10.64-15.46,16.95c-2.19,3.13-4.03,6.55-5.23,10.19-.61,1.86-1,3.76-1.24,5.7s-.35,4.07.8,5.76,3.21,2.63,5.1,3.41c1.78.73,3.63,1.23,5.53,1.52,4.03.6,8.1.37,12.07-.56,8.98-2.11,16.6-7.8,23.41-13.77,1.02-.89.91-2.63,0-3.54-1.01-1.01-2.52-.89-3.54,0-5.45,4.77-11.44,9.37-18.4,11.69-3.36,1.12-6.87,1.68-10.41,1.5-1.7-.08-3.37-.37-5.01-.84-1.33-.39-3.36-.93-4.36-1.93-.8-.8-.28-2.74-.1-3.76.3-1.7.76-3.36,1.37-4.97,1.2-3.18,3.04-6.14,5.04-8.87,4.17-5.67,9.48-10.37,14.39-15.38,5.63-5.74,10.83-12.01,13.52-19.7.45-1.27-.51-2.73-1.75-3.08-1.38-.38-2.63.47-3.08,1.75h0Z"/>
      <path class="cls-1" d="m117.76,113.48c23.74.9,47.52.78,71.26-.4,6.7-.33,13.39-.75,20.08-1.25,1.35-.1,2.5-1.08,2.5-2.5,0-1.28-1.15-2.6-2.5-2.5-23.7,1.76-47.46,2.49-71.22,2.17-6.71-.09-13.41-.27-20.11-.52-3.22-.12-3.21,4.88,0,5h0Z"/>
      <path class="cls-1" d="m213.86,108.99c1.56-14,2.64-28.04,3.26-42.11.14-3.22-4.86-3.21-5,0-.62,14.07-1.71,28.11-3.26,42.11-.15,1.34,1.26,2.5,2.5,2.5,1.48,0,2.35-1.15,2.5-2.5h0Z"/>
      <path class="cls-1" d="m100.58,66.57c16.71.89,33.42,1.78,50.14,2.27s33.26.59,49.88-.09c9.45-.39,18.9-1.03,28.31-1.99,1.34-.14,2.5-1.05,2.5-2.5,0-1.25-1.15-2.64-2.5-2.5-16.62,1.69-33.32,2.4-50.03,2.47s-33.29-.46-49.91-1.22c-9.47-.43-18.93-.93-28.4-1.44-3.22-.17-3.21,4.83,0,5h0Z"/>
      <path class="cls-1" d="m101.06,61.21c-8.23.61-16.55-1.01-23.86-4.88-5.82-3.07-12.9-8.18-11.63-15.7,1.2-7.06,7.59-11.23,14.51-10.8,3.72.23,7,1.82,9.94,4.01s5.77,4.83,9.28,6.28,7.55,1.21,10.84-.89,5.43-5.2,7.8-8.13c4.81-5.95,10.58-11.1,17.04-15.21,12.14-7.71,27.63-12.7,42.1-10.32,6.6,1.08,13.01,3.69,17.6,8.7,5.21,5.7,6.87,13.64,10.54,20.26.97,1.75,2.1,3.37,3.36,4.92.85,1.05,2.65.89,3.54,0,1.04-1.04.85-2.48,0-3.54-5.17-6.35-6.57-14.87-11.1-21.62-4.28-6.37-10.87-10.55-18.21-12.59-15.35-4.26-32.4-.11-46.08,7.35-7.19,3.92-13.79,9.03-19.34,15.06-2.66,2.88-4.83,6.2-7.6,8.98-2.45,2.46-5.46,3.81-8.83,2.33s-6.16-4.32-9.16-6.46c-3.45-2.45-7.48-3.88-11.71-4.14-8.3-.52-15.92,4.25-18.71,12.13-1.25,3.53-1.28,7.56.14,11.04,1.64,4.04,4.72,7.1,8.21,9.61,7.23,5.19,16.11,8.1,24.96,8.66,2.13.13,4.26.11,6.39-.05,1.35-.1,2.5-1.08,2.5-2.5,0-1.28-1.15-2.6-2.5-2.5h0Z"/>
      <path class="cls-1" d="m209.6,39.6c5.41,3.66,11.91,2.63,17.1-.83,4.36-2.91,8.72-8.05,14.39-8.03,2.81,0,4.74,2.1,6.63,3.93,1.78,1.73,3.68,3.75,3.78,6.37.11,2.87-1.34,5.65-2.81,8.02-1.37,2.2-3.04,4.18-4.94,5.93-4.29,3.95-9.67,6.48-15.43,7.37-1.34.21-2.07,1.88-1.75,3.08.39,1.43,1.74,1.95,3.08,1.75,5.93-.92,11.44-3.55,16.08-7.32s8.87-9.23,10.33-15.1c.85-3.43.43-6.92-1.56-9.88-1.77-2.63-4.26-5-6.79-6.9-5.73-4.31-12.86-1.59-17.99,2.29-2.75,2.08-5.42,4.6-8.65,5.93-3.05,1.25-6.21.92-8.93-.92s-5.18,2.52-2.52,4.32h0Z"/>
      <path class="cls-1" d="m138.06,71.4c-7.6-2.31-16.29,1.43-20.28,8.2-1.05,1.78-1.97,4-1.99,6.09-.01,1.29.5,2.44,1.32,3.41.6.72,1.39,1.23,1.84,2.05.53.96.82,1.95,1.59,2.78.86.93,2.02,1.45,3.19,1.86,2.4.84,4.88,1.5,7.35,2.11,9.43,2.32,20.59,3.67,29.7-.55,3.7-1.71,6.97-4.89,7.79-9.01.86-4.36-.85-8.66-3.73-11.9-3.61-4.06-8.9-5.68-14.14-6.3-5.8-.68-11.75-.34-17.58-.34-3.22,0-3.22,5,0,5,4.54,0,9.09-.1,13.63.06,3.89.14,8,.58,11.45,2.55,2.67,1.53,4.84,4.14,5.49,7.18.6,2.79-.75,5.43-3.01,7.05-2.77,1.99-6.28,2.8-9.62,3.13-4.36.43-8.78.19-13.1-.54s-8.8-1.72-12.89-3.27c-1.53-.58-1.71-2.56-2.76-3.74-.38-.44-1.21-.9-1.45-1.42-.19-.4.2-1.33.36-1.78,2.1-6.15,9.53-9.64,15.53-7.82,3.09.94,4.4-3.89,1.33-4.82h0Z"/>
      <path class="cls-1" d="m132.24,70.52h-.44c-.34-.01-.67.06-.96.22-.31.1-.58.27-.8.52-.24.23-.42.49-.52.8-.16.3-.23.62-.22.96l.09.66c.12.42.33.79.64,1.1l.51.39c.39.23.81.34,1.26.34h.44c.34.01.67-.06.96-.22.31-.1.58-.27.8-.52.24-.23.42-.49.52-.8.16-.3.23-.62.22-.96l-.09-.66c-.12-.42-.33-.79-.64-1.1l-.51-.39c-.39-.23-.81-.34-1.26-.34h0Z"/>
      <path class="cls-1" d="m131.81,75.52c3.22,0,3.22-5,0-5s-3.22,5,0,5h0Z"/>
      <path class="cls-1" d="m131.81,75.52c3.22,0,3.22-5,0-5s-3.22,5,0,5h0Z"/>
      <path class="cls-1" d="m131.83,75.7c1.17.04,2.82-.01,3.55.92.51.66.8,1.58,1.08,2.35.38,1.02.7,2.05.97,3.1.98,3.82,1.17,7.86.51,11.76-.23,1.33.35,2.69,1.75,3.08,1.2.33,2.85-.41,3.08-1.75.88-5.17.68-10.47-.81-15.52-.68-2.29-1.5-5.09-3.27-6.8s-4.44-2.06-6.85-2.14c-3.22-.11-3.21,4.89,0,5h0Z"/>
      <path class="cls-1" d="m136.62,71.7c-3.24.38-6.37,1.05-9.31,2.51s-5.07,3.78-7.09,6.26-4.11,5.46-3.58,8.95c.45,2.99,2.77,5.43,5.85,5.57,1.09.05,2.13-.81,2.41-1.84.32-1.16-.26-2.14-1.15-2.82-.12-.09-.51-.57-.65-.8-.33-.54-.37-.59-.54-1.28-.14-.58-.13-.55-.11-1.23,0-.52-.05.06.04-.41.02-.12.28-.91.18-.69l-4.57-.6c.74,2,1.48,4,2.21,6.01s2.14,4.47,4.74,3.87c1.51-.35,2.19-1.5,2.24-2.98.03-1.05,0-2.12-.01-3.17s0-2.12-.01-3.17c0-.53,0-1.06,0-1.59,0-.44.13-1.17,0-1.59.02-.32.01-.38-.02-.18-.15.42-.44.7-.86.84-.16.04-.31.03-.47-.03.28.08.29.08.02,0-.42-.49-.5-.54-.25-.16-.06-.05-.09-.12-.07-.2.06.45,0,.46-.08.74-.52,1.86-1.56,3.34-1.57,5.35-.02,4.27,4.12,7.59,8.16,5.6.93-.46,1.49-1.84,1.15-2.82-1.02-2.94-2.05-5.88-3.07-8.82-.24-.7-.55-1.4-.71-2.13-.2-.96.04-.16-.11-.18l-.79.34c-.33,0-.61-.11-.84-.33l-.14-.17c.13.25.14.26.02.03.01.04.15.8.09.3.03.28.03.57.02.85-.09,2.83-.93,6.13.08,8.87.49,1.32,1.4,2.41,2.68,3.02,1.61.77,4.12.73,5.14-1.01.68-1.16,1.01-2.74,1.23-4.04.26-1.59.31-3.24-.17-4.8-.4-1.31-1.18-2.39-1.77-3.61-.06-.13-.44-1.34-.37-1.32.08.02-.17.15-.09.16-.2,0-.33.11-.58.04.06.02-.49-.39-.57-.4-.08-.02-.04-.62-.03.11,0,.62-.06,1.24-.09,1.86-.07,1.47,0,2.93.19,4.38s.47,2.97.92,4.41c.18.58.33,1.34.65,1.86l.1.31c-.07-.63.15-1.12.66-1.47.15-.11.32-.17.51-.19.32.06.33.05.04-.02l.2.08c-.25-.15-.25-.15-.01,0,.19-.28.15,1.03.02-.15-.08-.76-.24-1.58-.4-2.32-.34-1.51-1.18-2.88-2.36-3.88-2.68-2.28-6.12-2.49-9.48-2.37l.66,4.91c4.99-1.97,9.99-3.94,14.98-5.91,2.62-1.03,2.24-4.67-.66-4.91-1.75-.14-3.24,1.05-3.95,2.57s-.78,3.18-.78,4.83c0,1.86.18,3.71.46,5.54.13.82.3,1.64.48,2.45.05.3.06.33.02.08.01.17.02.33,0,.5-.03,0,.3-.64.41-.7-1.28.65-1.44,2.26-.9,3.42.21.46.43.91.64,1.37l2.16-3.76c-2.18.02-4.29-1.06-5.47-3.01-1.66-2.75-5.99-.24-4.32,2.52,2.06,3.41,5.8,5.53,9.79,5.49,2.02-.02,2.95-2.08,2.16-3.76-.21-.46-.43-.91-.64-1.37l-.9,3.42c3.27-1.67,1.67-5.7,1.32-8.44-.2-1.62-.26-3.26-.2-4.89,0-.25.02-.5.04-.75.02-.27.03-.32.01-.15-.03.19.17-.54.19-.64-.08.18-.08.19,0,.04.09-.15.07-.14-.07.03.21-.21.2-.21-.02,0-.74.13-.89.2-.44.21l-.66-4.91c-4.99,1.97-9.99,3.94-14.98,5.91-1.16.46-1.99,1.43-1.79,2.74.18,1.18,1.19,2.21,2.46,2.17,1.78-.06,3.97-.19,5.46.63.53.29.98.63,1.26,1.1.37.61.41,1.67.56,2.52.38,2.08,1.67,3.9,3.85,4.3s4.54-.85,4.65-3.27c.05-1.12-.43-2.08-.76-3.12-.36-1.1-.63-2.23-.83-3.37-.33-1.91-.21-3.81-.13-5.73.09-2.27-.87-4.63-3.31-5.14-2.3-.48-4.62,1.14-5.23,3.35-.36,1.3-.17,2.71.32,3.95.45,1.15,1.2,2.14,1.69,3.27.82,1.9,0,4.12-.68,5.94l1.15-1.49c.18-.1.36,0,.51-.03.03,0-.28-.25-.05.04-.28-.36-.28-.79-.29-1.24-.03-1.64.17-3.3.27-4.93.17-2.72-.14-6.41-3.52-6.93-1.74-.27-3.37.71-4.17,2.24-.88,1.7-.45,3.54.15,5.25,1.11,3.19,2.22,6.37,3.33,9.56l1.15-2.82c.26-.13.29.01,0-.04.44.08-.33-.17-.02,0-.26-.15-.37-.16-.46-.39-.34-.88-.07-1.7.35-2.68.59-1.38,1.21-2.71,1.15-4.25s-.82-3.22-2.25-4.02c-1.27-.71-2.92-.78-4.19-.04-1.47.85-1.9,2.38-1.9,3.99,0,3.24.03,6.48.04,9.72l1.24-2.16.19-.08h1.33c-.07,0,.37.25.35.26-.04.02-.19-.44-.19-.45-.27-.68-.51-1.38-.76-2.06-.51-1.38-1.02-2.75-1.52-4.13-.35-.94-1.03-1.67-2.08-1.79-.9-.11-2.09.28-2.49,1.19-1.82,4.09-.65,8.52,2.87,11.25l1.26-4.66c.39.02-.18-.03-.3-.08.36.16-.12-.21.01-.03-.09-.12-.26-.27-.4-.53-.29-.54-.36-1.02-.21-1.6.52-2.06,2.16-3.76,3.51-5.34,1.49-1.73,3.1-3.14,5.2-4.09,1.97-.89,4.2-1.36,6.33-1.61,1.34-.16,2.5-1.04,2.5-2.5,0-1.23-1.15-2.66-2.5-2.5h0Z"/>
      <path class="cls-1" d="m121.55,86.56c1.03.25,2.04.55,3.03.92.25.09.49.18.74.28.12.05.24.1.37.15-.29-.12-.31-.13-.05-.02.48.22.96.44,1.43.68.94.48,1.86,1.01,2.74,1.59.44.29.87.59,1.3.91.11.08.21.16.32.24-.24-.19-.26-.2-.04-.03.2.17.41.33.61.5,1,.84,2.57,1.05,3.54,0,.85-.93,1.07-2.64,0-3.54-3.68-3.08-7.97-5.35-12.65-6.49-1.27-.31-2.77.4-3.08,1.75s.39,2.74,1.75,3.08h0Z"/>
      <path class="cls-1" d="m62.41,114.17h3.51c.64,0,1.31-.28,1.77-.73.24-.23.42-.49.52-.8.16-.3.23-.62.22-.96-.03-.65-.24-1.32-.73-1.77s-1.09-.73-1.77-.73h-3.51c-.64,0-1.31.28-1.77.73-.24.23-.42.49-.52.8-.16.3-.23.62-.22.96.03.65.24,1.32.73,1.77s1.09.73,1.77.73h0Z"/>
      <path class="cls-1" d="m49.57,101.86c1.75-.99,3.73-1.27,5.71-1.36s4.27-.34,6,.28c1.4.5,2.14,2.6,2.68,4.03.88,2.3,1.48,4.7,1.83,7.14.19,1.34,1.89,2.07,3.08,1.75,1.44-.4,1.94-1.73,1.75-3.08-.4-2.81-1.15-5.54-2.24-8.16-1.15-2.75-2.52-5.29-5.47-6.39-2.38-.89-5.29-.68-7.79-.56-2.82.14-5.58.63-8.06,2.03-2.8,1.58-.29,5.9,2.52,4.32h0Z"/>
      <path class="cls-1" d="m47.9,98.04c-4.56-3.46-11.26-2.67-15.38,1.07l3.93.51c-1.77-3.2-5.19-4.24-8.66-4.13-3.73.11-8.36.69-9.5,4.92l3.67-1.49c-8.09-3.47-17.48.78-19.91,9.31-.69,2.44-.9,5-1.17,7.51s-.56,4.9-.77,7.35c-.38,4.47.12,9.38,3.98,12.27,4.44,3.32,10.66,1.84,13.49-2.79l-4.66-1.26c-.38,3.53.83,7.09,2.47,10.18,1.51,2.83,4.02,5.25,7.42,5.16s6.72-2.66,9.62-4.4c1.5-.9,3.37-1.88,3.42-3.89.05-2.13-1.91-3.73-3.97-3.16-3.1.85-1.78,5.68,1.33,4.82l.24-.07h-1.33l.24.09-1.1-.64-.08-.05-.34-1.26v.28c.12-.42.23-.84.35-1.26-.22.49-1.77,1.13-2.31,1.45-1.01.61-2.01,1.23-3.03,1.82-1.22.72-2.9,1.83-4.3.97-1.28-.78-2-2.52-2.56-3.84-.85-1.99-1.31-4.02-1.08-6.18.28-2.6-3.46-3.22-4.66-1.26-1.41,2.3-4.51,2.89-6.55,1.03-2.24-2.05-1.81-5.84-1.55-8.55.37-3.81.58-7.76,1.36-11.51.62-3.01,1.92-5.53,4.65-7.08,2.44-1.38,5.67-1.81,8.27-.69,1.45.62,3.21.22,3.67-1.49.38-1.42,3.83-1.25,5.01-1.26,1.66-.02,3.16.12,4.01,1.66s2.77,1.56,3.93.51c2.6-2.37,6.57-2.38,9.32-.29,1.08.82,2.8.17,3.42-.9.75-1.28.18-2.6-.9-3.42h0Z"/>
      <path class="cls-1" d="m46.6,134.37c3.22,0,3.22-5,0-5s-3.22,5,0,5h0Z"/>
      <path class="cls-1" d="m57.7,111.9c.48,3.44.77,6.91.9,10.38.12,3.28.29,6.7-.11,9.97-.2,1.6-.69,3.73-2.68,3.35-2.7-.51-4.45-3.66-6.43-5.32s-4.54-.05-4.18,2.43c.34,2.35.34,4.79.06,7.14-.06.54-.15,1.08-.26,1.61-.1.5-.45,1.3-.4,1.8-.24.54-.1.54.41,0-.15.05-.31.09-.47.11-.52-.04-1.08.07-1.61.05-3.32-.12-7.05-2.71-6.05-6.43.84-3.11-3.98-4.44-4.82-1.33s.06,6.42,2.15,8.9,5.49,3.73,8.72,3.86c1.54.06,3.33-.05,4.65-.93,1.66-1.11,2-3.31,2.32-5.14.64-3.67.64-7.28.11-10.96l-4.18,2.43c2.89,2.43,5.01,5.96,9.01,6.68s6.98-1.61,8.1-5.26.78-7.61.7-11.23c-.1-4.5-.51-8.98-1.13-13.44-.19-1.34-1.89-2.07-3.08-1.75-1.44.4-1.93,1.73-1.75,3.08h0Z"/>
      <path class="cls-1" d="m239.42,113.38l4.82-.53c.34.01.67-.06.96-.22.31-.1.58-.27.8-.52.43-.43.76-1.15.73-1.77s-.24-1.32-.73-1.77c-.46-.42-1.12-.8-1.77-.73l-4.82.53c-.34-.01-.67.06-.96.22-.31.1-.58.27-.8.52-.43.43-.76,1.15-.73,1.77s.24,1.32.73,1.77c.46.42,1.12.8,1.77.73h0Z"/>
      <path class="cls-1" d="m240.74,110.98c1.54-3.17,3.49-6.41,6.57-8.13,1.61-.89,3.55-1.11,5.48-1.13.99,0,2.09-.09,3.07.08.35.06.63.13.86.32-.02-.02-.1-.11-.11-.11.34.15.05.35.04.02.06,3.21,5.06,3.22,5,0-.07-3.4-3.09-5.05-6.13-5.26-2.85-.2-6.07-.18-8.77.87-4.91,1.9-8.1,6.23-10.33,10.82-.59,1.21-.33,2.7.9,3.42,1.1.64,2.83.32,3.42-.9h0Z"/>
      <path class="cls-1" d="m260.79,103.23s.32-.55.15-.3.19-.19.24-.24c.42-.43-.18.06.1-.09.16-.09.31-.2.47-.29.14-.08.31-.14.45-.23.25-.16-.44.15,0,0,.29-.1.58-.2.88-.28.15-.04.3-.07.45-.1s.56-.19-.03-.01c.27-.08.64-.06.92-.06.31,0,.62,0,.93.03.08,0,.61.09.22.02s.19.04.22.05c.61.12,1.2.32,1.78.53-.17-.06-.36-.17-.09-.03.17.08.33.16.5.25.24.13.48.28.72.43.13.09.25.18.38.26-.47-.31-.11-.09,0,.01.23.21.46.41.67.63.11.11.2.23.31.34.31.34-.14-.25,0,0,.17.29.38.56.54.86.64,1.14,2.3,1.62,3.42.9s1.58-2.2.9-3.42c-1.67-2.99-4.81-5.11-8.18-5.66-3.59-.59-8.47.28-10.28,3.87-.59,1.17-.35,2.76.9,3.42,1.14.6,2.79.35,3.42-.9h0Z"/>
      <path class="cls-1" d="m275.22,104.43c.03-.08.19-.43.18-.51.03.19-.19.41.01.03.05-.09.54-.79.52-.84.03.06-.35.41,0,.02.1-.11.2-.22.3-.33.19-.19.42-.47.67-.6-.54.29-.04.05.08-.03.13-.08.25-.16.38-.24s.26-.15.4-.21c.08-.04.16-.08.24-.12.17-.08.11-.05-.18.08.16-.16.64-.22.85-.27.17-.04.35-.08.52-.11.47-.09-.36.01-.05,0,.3,0,.59-.03.89-.02.39.02.18.08-.04-.03.13.06.38.07.53.1.15.04.3.08.45.13.27.09.33.12.03-.01.32.14.63.31.93.5.14.09.26.18.4.27-.49-.34,0,.02.09.1.24.22.44.46.66.7-.22-.24-.15-.2.01.03.09.13.18.27.26.41.1.17.17.34.27.51-.2-.36-.06-.14.04.12.43,1.23,1.73,2.18,3.08,1.75,1.21-.39,2.21-1.75,1.75-3.08-1.36-3.85-5.11-6.83-9.33-6.48s-7.51,2.94-8.75,6.81c-.4,1.25.47,2.78,1.75,3.08,1.37.31,2.65-.41,3.08-1.75h0Z"/>
      <path class="cls-1" d="m286.65,105.83c2.66-.94,7.29-2.74,9.49.03,2.01,2.52,1.36,6.88,1.36,9.85,0,2.43-.01,4.87-.02,7.3,0,2.05.17,4.21-.16,6.24-.19,1.21-.97,3.59-2.62,3.55-.28,0-.46-.16-.65-.43-.02-.03-.12-.27-.14-.44.03.24-.15.48.12.06,1.73-2.73-2.6-5.24-4.32-2.52-2.35,3.71,1.15,8.55,5.3,8.28,5.29-.34,7.29-5.74,7.44-10.28.16-4.95.06-9.92.05-14.87,0-3.8-.38-8.21-3.44-10.89-3.92-3.43-9.28-2.28-13.74-.71-1.27.45-2.12,1.71-1.75,3.08.34,1.23,1.8,2.2,3.08,1.75h0Z"/>
      <path class="cls-1" d="m289.35,129.48c-.78,2.35-1.62,4.36-2.77,6.56-.58,1.11-1.2,2.19-1.86,3.25-.33.53-.68,1.06-1.03,1.58-.15.22-.31.45-.48.66.22-.28-.32.36-.3.34-.18.2-.37.4-.56.58,0,0-.57.47-.32.29-.22.16-.45.29-.69.42.41-.22-.17.06-.28.09-.15.04-.31.08-.46.1.23-.03.26-.04.08-.03-.09,0-.76-.04-.48,0,.42.07-.62-.22-.25-.07.27.11-.52-.48-.15-.09-.43-.46-.68-1.53-1.02-2.55-.45-1.38-.91-2.76-1.36-4.14-.42-1.28-1.73-2.12-3.08-1.75-1.26.35-2.17,1.79-1.75,3.08.52,1.59,1.05,3.18,1.57,4.77s1.01,3.16,2.27,4.27c2.6,2.27,6.32,1.66,8.85-.35,2.27-1.81,3.83-4.63,5.2-7.15,1.49-2.73,2.71-5.6,3.69-8.55.41-1.24-.48-2.79-1.75-3.08-1.38-.31-2.63.42-3.08,1.75h0Z"/>
      <path class="cls-1" d="m273.1,135.28c-1.6,1.97-3.17,3.97-4.81,5.91-.34.4-.69.8-1.06,1.17-.2.2-.4.39-.62.57.32-.26-.18.12-.26.16-.2.12-.4.24-.62.33.45-.18-.31.05-.41.07-.18.04-.15.03.11-.02-.15,0-.29.01-.44,0-.5.02.32.13-.2-.03-.77-.24-1.16-.44-1.76-1.08-.02-.02-.49-.59-.21-.21-.14-.18-.27-.38-.38-.58-.05-.08-.38-.74-.29-.52.07.17.05.12-.06-.17-.06-.17-.11-.34-.16-.52-.07-.26-.14-.52-.19-.79,0,0-.11-.79-.07-.41-.07-.63-.08-1.27-.07-1.91.02-1.2.15-2.39.27-3.57.14-1.3-1.25-2.56-2.5-2.5-1.48.07-2.35,1.1-2.5,2.5-.31,2.91-.56,5.98.5,8.78,1,2.65,3.11,4.94,5.89,5.74,2.94.85,5.75-.47,7.78-2.58s3.77-4.55,5.61-6.82c.82-1.01,1.07-2.56,0-3.54-.91-.84-2.66-1.08-3.54,0h0Z"/>
      <path class="cls-1" d="m258.01,131.06c-.84.12-1.94.23-2.88.11-.5-.06-1.24-.27-1.48-.59-.68-.89-.62-2.54-.75-3.59-.2-1.62-.41-3.23-.61-4.85-.39-3.05-.66-6.14-1.17-9.18-.39-2.3-1.67-4.82-4.18-5.28-1.33-.24-2.7.36-3.08,1.75-.33,1.21.41,2.83,1.75,3.08.43.08.24.03.06-.09.25.18.09.09.17.24.1.18.28.78.37,1.2.27,1.28.36,2.6.52,3.89.42,3.31.84,6.62,1.26,9.93.37,2.96.75,6.03,3.68,7.57,2.38,1.25,5.11,1,7.67.62,1.34-.2,2.07-1.89,1.75-3.08-.39-1.43-1.73-1.94-3.08-1.75h0Z"/>
    </g>
  </g>
</svg>