<?xml version="1.0" encoding="UTF-8"?>
<svg id="Layer_2" data-name="Layer 2" xmlns="http://www.w3.org/2000/svg" viewBox="0 0 255.8 226.95">
  <defs>
    <style>
      .cls-1 {
        fill: #f56b39;
      }
    </style>
  </defs>
  <g id="Lag_1" data-name="Lag 1">
    <g>
      <path class="cls-1" d="m95.04,52.91c.13,9.17-.14,18.34-.79,27.48-.1,1.35,1.22,2.5,2.5,2.5,1.43,0,2.4-1.15,2.5-2.5.66-9.15.92-18.32.79-27.48-.05-3.21-5.05-3.22-5,0h0Z"/>
      <path class="cls-1" d="m97.63,117.62l1.57,6.76c.3,1.28,1.83,2.15,3.08,1.75,1.33-.43,2.06-1.71,1.75-3.08l-1.57-6.76c-.3-1.28-1.83-2.15-3.08-1.75-1.33.43-2.06,1.71-1.75,3.08h0Z"/>
      <path class="cls-1" d="m178.95,53.35c2.4,5.52,5.88,10.58,10.14,14.83,2.11,2.1,4.44,4.01,6.9,5.69,2.27,1.56,4.72,2.84,7.01,4.38,2.02,1.36,3.98,3.01,4.99,5.29.58,1.32.83,2.82,1.02,4.24.22,1.65.42,3.32.39,4.98-.05,2.74-1.26,4.79-3.6,6.19-2.2,1.32-4.83,1.99-7.37,2.2-6.25.52-12.65-1.4-17.4-5.54-1.02-.89-2.54-1-3.54,0-.91.91-1.02,2.64,0,3.54,5.05,4.4,11.49,6.93,18.2,7.09,6.11.15,13.73-1.67,17.1-7.29,1.88-3.13,1.72-6.8,1.31-10.29s-.96-6.91-3.12-9.77c-3.79-5.05-10.05-7.18-14.84-11.06-5.62-4.56-10.01-10.35-12.9-16.99-.54-1.24-2.35-1.52-3.42-.9-1.28.75-1.44,2.18-.9,3.42h0Z"/>
      <path class="cls-1" d="m176.78,97.34c.94,8.75-.61,17.61-4.67,25.44-1.48,2.85,2.84,5.39,4.32,2.52,4.44-8.58,6.38-18.34,5.35-27.96-.14-1.34-1.05-2.5-2.5-2.5-1.24,0-2.64,1.15-2.5,2.5h0Z"/>
      <path class="cls-1" d="m156.26,53.12c-8.24-.28-17.27,2.97-20.16,11.4-2.7,7.86,2.85,16.01,9.91,19.17,3.96,1.77,8.27,2.5,12.6,2.55s8.7-.63,12.47-2.77c3.37-1.92,6.13-4.99,7.22-8.76s.43-7.53-1.12-10.93c-3.89-8.51-13.68-11.65-22.39-11.6-3.22.02-3.22,5.02,0,5,5.88-.03,12.64,1.39,16.43,6.32,3.46,4.5,3.65,10.8-.97,14.53-5.01,4.05-13.03,3.87-18.94,2.27-5.54-1.5-11.38-5.99-10.84-12.38.64-7.61,9.5-10.02,15.81-9.81,3.22.11,3.21-4.89,0-5h0Z"/>
      <path class="cls-1" d="m149.77,80.43c-.17-1.74,1.7-2.35,3.1-2.74,2.27-.63,4.63-1.19,6.96-1.52,3.77-.52,7.99-.19,10.78,2.67,2.25,2.31,5.79-1.23,3.54-3.54-4.21-4.31-10.38-4.8-16.02-3.9-4.86.78-14.04,2.21-13.36,9.02.13,1.34,1.05,2.5,2.5,2.5,1.25,0,2.63-1.15,2.5-2.5h0Z"/>
      <path class="cls-1" d="m150.63,81.3c6.6-.24,13.2-.48,19.8-.71,2.5-.09,3.37-3.32,1.26-4.66-3.13-1.99-7.32-1.53-10.85-1.42-3.97.12-7.93.44-11.87.94l.66,4.91c5.89-1.78,11.98-2.39,18.11-1.87v-5c-1.16-.02-2.32-.03-3.48-.05-.4,0-1.13-.17-1.5-.03-.63.23-.04-.08-.1,0,.02-.03.66,1,.56,1.24.47-1.27-.52-2.74-1.75-3.08-1.4-.38-2.6.48-3.08,1.75-.82,2.22.94,4.44,3.07,4.92,1.99.45,4.24.21,6.26.24,1.35.02,2.5-1.16,2.5-2.5,0-1.45-1.15-2.39-2.5-2.5-6.53-.55-13.16.16-19.44,2.05-1.18.36-1.98,1.51-1.79,2.74.17,1.1,1.21,2.33,2.46,2.17,3.66-.46,7.33-.77,11.02-.91,1.81-.07,3.63-.11,5.45-.09,1.32.02,2.59.07,3.73.79l1.26-4.66c-6.6.24-13.2.48-19.8.71-3.21.12-3.22,5.12,0,5h0Z"/>
      <path class="cls-1" d="m164.93,72.52l-7.53.46c-.66.04-1.29.25-1.77.73-.43.43-.76,1.15-.73,1.77.06,1.29,1.1,2.58,2.5,2.5l7.53-.46c.66-.04,1.29-.25,1.77-.73.43-.43.76-1.15.73-1.77-.06-1.29-1.1-2.58-2.5-2.5h0Z"/>
      <path class="cls-1" d="m171.07,75.09l-.73-.63-3.03,3.93c.88.37,1.71.86,2.47,1.44l-.51-.39c.18.14.35.28.52.43.23.24.49.42.8.52.3.16.62.23.96.22.34.01.67-.06.96-.22.31-.1.58-.27.8-.52.44-.48.76-1.1.73-1.77s-.23-1.34-.73-1.77c-1.05-.91-2.21-1.71-3.49-2.26-.29-.18-.6-.28-.93-.3-.33-.07-.66-.06-1,.04l-.6.25c-.29.16-.53.37-.7.64-.15.16-.26.34-.32.55-.16.3-.23.62-.22.96.03.63.23,1.34.73,1.77l.73.63c.23.24.49.42.8.52.3.16.62.23.96.22.34.01.67-.06.96-.22.31-.1.58-.27.8-.52.44-.48.76-1.1.73-1.77s-.23-1.34-.73-1.77h0Z"/>
      <path class="cls-1" d="m147.07,80.66c.58.94,1.3,1.64,2.22,2.25l.6-4.57c.5-.11.9,0,1.22.36l-2.16,3.76c1.14.04,2.25.51,3.36.77,1.42.34,2.85.57,4.3.75,2.58.32,5.19.36,7.77.09,1.32-.14,2.64-.32,3.93-.59,1.48-.3,3.22-.56,4.06-1.98.76-1.3.35-2.93-.72-3.9-1.31-1.18-3.25-.91-4.88-.91-2.82,0-5.63,0-8.45,0-1.41,0-2.82,0-4.22,0s-2.95-.2-4.31.1c-1.53.34-2.54,1.66-2.46,3.21.08,1.65,1.35,2.76,2.84,3.2,2.58.77,5.5,1.23,8.19,1.23,1.66,0,3.34-.21,4.95-.6,1.49-.36,3.44-.79,3.9-2.49.57-2.06-1.14-3.51-3.02-3.66-1.64-.13-3.35-.02-4.99.04-1.35.05-2.5,1.11-2.5,2.5,0,1.31,1.14,2.56,2.5,2.5.83-.03,1.66-.06,2.49-.07.42,0,.83,0,1.25,0h.42c.68.08.57-.05-.31-.41l-.73-1.77v.19c.23-.59.48-1.18.72-1.77.31-.3.67-.33.08-.21-.32.06-.63.19-.95.26-.51.13-1.02.24-1.54.32-1.07.16-2.18.18-3.26.12s-2.13-.22-3.18-.43c-.88-.17-2.32-.31-2.87-.72l.9.9-.08,1.49-.9.9c-.6.13-.7.18-.31.16h.63c.42,0,.84,0,1.27,0,.77,0,1.55,0,2.32,0,1.62,0,3.24,0,4.86,0s3.1,0,4.65,0c.84,0,1.69,0,2.53,0,.65,0,1.45-.14,2.03.09l-1.1-.64-.25-.47v-1.33l-.06.24.64-1.1c.57-.27.59-.33.06-.15-.25.06-.5.12-.76.18-.38.09-.76.17-1.14.24-.8.15-1.61.27-2.42.35-1.68.16-3.37.2-5.06.11-1.6-.08-3.17-.29-4.73-.63-1.82-.39-3.57-1.06-5.44-1.12s-3.06,2.16-2.16,3.76,2.61,2.2,4.43,1.94c.95-.14,1.69-1.22,1.79-2.08.12-1.03-.33-1.92-1.19-2.49-.23-.15-.27-.21-.42-.46-1.7-2.73-6.03-.22-4.32,2.52h0Z"/>
      <path class="cls-1" d="m157.61,58.12c3.22,0,3.22-5,0-5s-3.22,5,0,5h0Z"/>
      <path class="cls-1" d="m158.59,58.12c3.22,0,3.22-5,0-5s-3.22,5,0,5h0Z"/>
      <path class="cls-1" d="m87.11,53.56c25.91.55,51.84.61,77.76.18,7.31-.12,14.62-.28,21.93-.48,3.21-.09,3.22-5.09,0-5-25.91.71-51.83.93-77.75.65-7.31-.08-14.62-.2-21.93-.35-3.22-.07-3.22,4.93,0,5h0Z"/>
      <path class="cls-1" d="m187.4,52.66c6.88-.51,14.09-1.1,20.11-4.81,2.59-1.6,4.89-3.7,6.53-6.28,1.83-2.87,2.59-6.28,2.73-9.65.15-3.66-.48-7.12-2.95-9.94-2-2.28-4.99-3.8-7.94-4.37-3.46-.67-7-.32-10.23,1.08-2.95,1.27-5.29,3.42-7.84,5.33-2.27,1.7-5.6,3.81-8.57,2.67-1.53-.59-2.47-2.2-3.33-3.49-1.23-1.84-2.46-3.69-3.69-5.53-1.78-2.66-6.11-.16-4.32,2.52,1.89,2.83,3.63,5.91,5.87,8.49,2.11,2.44,5.2,3.57,8.39,3.2s5.88-1.79,8.36-3.67c2.32-1.75,4.56-3.9,7.28-5.04,4.4-1.82,11.49-1.02,13.51,3.99,1.04,2.6.6,6.2-.17,8.82s-2.4,4.76-4.5,6.42c-5.39,4.27-12.65,4.77-19.24,5.26-1.35.1-2.5,1.08-2.5,2.5,0,1.28,1.15,2.6,2.5,2.5h0Z"/>
      <path class="cls-1" d="m172.38,18.23c-3.12-6.29-8.74-11.13-15.06-14.05C149.83.73,141.51-.21,133.33.04c-4.71.14-9.88.2-14.16,2.38-2.87,1.46-.34,5.78,2.52,4.32,2-1.02,4.29-1.22,6.49-1.4,2.49-.2,4.99-.33,7.49-.33,4.84-.01,9.67.44,14.34,1.77,7.55,2.15,14.5,6.83,18.05,13.99,1.43,2.88,5.74.35,4.32-2.52h0Z"/>
      <path class="cls-1" d="m119.82,2.39c-7.27,2.82-11.93,8.85-16.45,14.91-2.07,2.78-4.24,6.24-7.31,8.01s-6.9-.18-9.67-1.78c-3.75-2.17-7.62-4.56-12.12-4.33-3.2.16-3.22,5.17,0,5,3.74-.19,6.87,2.1,9.97,3.86,3.46,1.96,7.42,3.54,11.45,2.69s6.62-4.01,8.97-6.96c2.5-3.14,4.74-6.48,7.37-9.51s5.48-5.66,9.12-7.07c1.26-.49,2.13-1.68,1.75-3.08-.33-1.2-1.81-2.24-3.08-1.75h0Z"/>
      <path class="cls-1" d="m87.7,48.8c-8.02-1.28-19.07-.02-23-8.95-1.56-3.54-2.58-8.23-.06-11.56s6.98-4.23,10.97-4.16c3.22.06,3.22-4.94,0-5-4.14-.08-8.5.71-11.9,3.22s-5.52,6.22-5.59,10.52,1.39,8.85,3.8,12.22,5.91,5.4,9.8,6.53c4.76,1.38,9.78,1.22,14.64,2,1.33.21,2.69-.34,3.08-1.75.33-1.19-.41-2.86-1.75-3.08h0Z"/>
      <path class="cls-1" d="m102.56,126.44c8.18.16,16.36.31,24.53.47,3.22.06,3.22-4.94,0-5-8.18-.16-16.36-.31-24.53-.47-3.22-.06-3.22,4.94,0,5h0Z"/>
      <path class="cls-1" d="m174.54,121.31l-8.35.5-4.09.25c-.6.04-1.2.09-1.8.1-.24,0-.5.02-.75-.02.26.03.24.02-.05-.05.12.02.22.08.3.17-1.02-.88-2.53-1-3.54,0-.9.9-1.03,2.65,0,3.54,1.25,1.08,2.66,1.42,4.28,1.35s3.11-.18,4.67-.28l9.33-.56c1.3-.08,2.56-1.09,2.5-2.5-.06-1.29-1.1-2.58-2.5-2.5h0Z"/>
      <path class="cls-1" d="m174.97,126.79c10.21,1.81,20,5.63,28.58,11.48,4.1,2.8,7.86,6.08,11.18,9.77,1.72,1.9,3.3,3.91,4.73,6.04,1.54,2.29,2.8,4.75,4.23,7.11,1.87,3.08,4.36,5.63,6.84,8.22s5.11,5.33,7.67,8c2.23,2.33,5.76-1.21,3.54-3.54s-4.67-4.87-7-7.3c-2.18-2.28-4.54-4.48-6.25-7.14-1.55-2.41-2.81-4.99-4.39-7.39-1.47-2.23-3.09-4.36-4.83-6.39-6.89-8.04-15.85-14.28-25.56-18.44-5.6-2.4-11.41-4.17-17.41-5.23-1.33-.23-2.69.36-3.08,1.75-.33,1.21.41,2.84,1.75,3.08h0Z"/>
      <path class="cls-1" d="m237.77,176.96c4.2,5.85,6.77,13.48,5.3,20.7-1.54,7.6-7.5,12.88-14.48,15.67-4.77,1.9-9.85,2.85-14.9,3.65-1.33.21-2.08,1.88-1.75,3.08.39,1.42,1.74,1.96,3.08,1.75,9.3-1.47,18.93-3.77,25.95-10.47,6.49-6.19,8.54-15.09,6.86-23.73-.92-4.72-2.95-9.27-5.75-13.17-.79-1.09-2.18-1.62-3.42-.9-1.08.63-1.69,2.32-.9,3.42h0Z"/>
      <path class="cls-1" d="m100.74,121.46c-2.94-.29-5.64.92-8.28,2.05-2.4,1.04-4.82,2.06-7.21,3.14-4.37,1.98-8.47,4.45-11.27,8.45-.77,1.11-.2,2.78.9,3.42,1.25.73,2.64.21,3.42-.9,2.26-3.23,5.98-5.08,9.48-6.66,2.11-.95,4.24-1.85,6.36-2.77s4.24-1.97,6.6-1.74c1.35.13,2.5-1.24,2.5-2.5,0-1.46-1.15-2.37-2.5-2.5h0Z"/>
      <path class="cls-1" d="m74.79,125.03c-1.9,11.45-3.58,22.94-5.08,34.45-.17,1.34,1.27,2.5,2.5,2.5,1.5,0,2.33-1.15,2.5-2.5,1.44-11.07,3.08-22.11,4.9-33.12.22-1.33-.35-2.69-1.75-3.08-1.2-.33-2.85.41-3.08,1.75h0Z"/>
      <path class="cls-1" d="m28.35,105.67c-2.19,12.92-7.05,25.19-9.78,37.99s-4.07,25.63-4.03,38.57c0,3.66.13,7.32.36,10.97.21,3.24.03,7.22,1.94,10.01.76,1.11,2.2,1.61,3.42.9,1.1-.65,1.66-2.3.9-3.42-.67-.97-.82-2.05-.93-3.21-.15-1.58-.26-3.17-.36-4.76-.2-3.18-.3-6.36-.33-9.54-.05-6.2.22-12.41.82-18.59,1.2-12.52,3.96-24.68,7.51-36.72,2.04-6.89,4.1-13.78,5.3-20.88.23-1.33-.35-2.69-1.75-3.08-1.2-.33-2.85.41-3.08,1.75h0Z"/>
      <path class="cls-1" d="m16.92,202.9c5.06,10.5,14.92,18.44,26.09,21.59,11.27,3.18,23.54.97,33.24-5.52,5.54-3.7,10.2-8.66,13.37-14.54,1.53-2.83-2.79-5.36-4.32-2.52-4.97,9.21-13.93,15.84-24.1,18.2-10.18,2.35-20.85-.32-29.15-6.54-4.62-3.45-8.32-8.01-10.82-13.19-.59-1.22-2.32-1.54-3.42-.9-1.24.73-1.49,2.2-.9,3.42h0Z"/>
      <path class="cls-1" d="m30.77,107.36c7.2,3.42,14.59,6.43,22.13,9,1.28.43,2.73-.5,3.08-1.75.38-1.37-.46-2.64-1.75-3.08-7.14-2.43-14.13-5.25-20.94-8.49-1.22-.58-2.7-.34-3.42.9-.64,1.09-.33,2.84.9,3.42h0Z"/>
      <path class="cls-1" d="m81.5,116.67c-3.02-4.3-7.45-7.41-12.55-8.72s-11.3-1.09-15.36,2.37c-2.41,2.06-3.12,5.11-2.65,8.15s1.69,6.15,4.14,7.96,5.86,2.65,8.79,3.3c3.15.71,6.37.99,9.57.53,5.88-.84,11.42-4.7,13.12-10.57.89-3.1-3.93-4.42-4.82-1.33-1,3.45-4.13,5.74-7.49,6.66-4.62,1.26-9.57,0-13.96-1.54-.86-.3-1.78-.63-2.48-1.23-.79-.69-1.16-1.79-1.47-2.76-.57-1.73-1.07-3.85.39-5.27,2.43-2.37,7.12-2.29,10.2-1.62,4.06.89,7.85,3.16,10.26,6.59.77,1.1,2.19,1.62,3.42.9,1.09-.64,1.68-2.31.9-3.42h0Z"/>
      <path class="cls-1" d="m32.19,51.43c-2.8-.28-5.38-2.17-7.94-3.2-2.92-1.17-6.04-1.35-8.91.07s-4.98,4.21-6.65,6.9c-1.81,2.91-3.31,5.99-4.59,9.17C1.53,70.76,0,77.82,0,84.72c0,3.8,1.17,7.01,3.66,9.88,2.1,2.43,4.76,4.54,7.33,6.46,2.92,2.19,6.18,3.43,9.67,4.38,3.03.82,6.4,1.47,8.86,3.55,1.03.87,2.52,1.01,3.54,0,.89-.89,1.04-2.66,0-3.54-2.28-1.92-4.9-3.09-7.74-3.93-2.59-.77-5.31-1.26-7.79-2.34-2.77-1.21-5.07-3.24-7.33-5.21-1.98-1.72-4.16-3.63-4.87-6.26-.8-2.92-.26-6.43.17-9.38.45-3.1,1.19-6.16,2.16-9.14s2.16-5.73,3.61-8.44c1.33-2.49,2.79-5.2,4.97-7.07s4.36-1.64,6.78-.6c3.07,1.32,5.79,3,9.19,3.34,1.35.13,2.5-1.24,2.5-2.5,0-1.46-1.15-2.37-2.5-2.5h0Z"/>
      <path class="cls-1" d="m32.5,102.9c-.99.11-1.98.1-2.97-.03l.66.09c-.76-.11-1.51-.28-2.24-.53-.59-.2-1.4-.06-1.93.25s-1.01.9-1.15,1.49c-.15.64-.11,1.36.25,1.93s.85.93,1.49,1.15c1.04.35,2.1.53,3.19.65.89.1,1.79.1,2.68,0,.34.01.67-.06.96-.22.31-.1.58-.27.8-.52.43-.43.76-1.15.73-1.77s-.24-1.32-.73-1.77c-.46-.42-1.12-.8-1.77-.73h0Z"/>
      <path class="cls-1" d="m31.93,102.4c-.83,0-1.65-.06-2.47-.17l.66.09c-1.64-.23-3.24-.66-4.77-1.3l.6.25c-.08-.04-.17-.07-.25-.11-.64-.28-1.22-.45-1.93-.25-.58.16-1.21.61-1.49,1.15-.31.58-.46,1.28-.25,1.93.19.58.57,1.24,1.15,1.49,2.79,1.2,5.7,1.9,8.75,1.92,1.31,0,2.56-1.16,2.5-2.5s-1.1-2.49-2.5-2.5h0Z"/>
      <path class="cls-1" d="m24.42,105.7c.26.02.52.04.78.06.13.01.26.03.39.04.29.04.26.03-.08-.01.12-.03.46.07.58.09.26.04.51.09.77.14.93.19,1.84.44,2.74.74.46.16.92.33,1.38.51.61.24-.48-.22.12.06.24.11.48.22.71.33.88.43,1.73.92,2.55,1.45,1.1.72,2.81.26,3.42-.9.66-1.25.27-2.66-.9-3.42-3.73-2.43-8.04-3.79-12.47-4.1-1.31-.09-2.56,1.22-2.5,2.5.06,1.43,1.1,2.4,2.5,2.5h0Z"/>
      <path class="cls-1" d="m34.36,55.5c.15-.24.13-.23-.06.04.2-.19.17-.18-.08.01.11-.08.84-.43.27-.2.44-.17.9-.28,1.36-.38.34-.07.68-.12,1.02-.18.18-.03.37-.06.55-.09.31-.05.37-.05.17-.02.69-.09,1.39-.15,2.09-.2,1.27-.09,2.52-.09,3.79-.05.19.02.13,0-.18-.03.13.02.25.04.38.07.25.05.49.13.72.22-.31-.14-.35-.14-.11-.02.23.15.2.12-.08-.08.19.19.17.15-.04-.12.13.23.13.19,0-.12.5,1.2,1.68,2.2,3.08,1.75,1.15-.37,2.29-1.78,1.75-3.08-.74-1.77-2.08-2.94-3.99-3.36-1.65-.36-3.37-.29-5.04-.19-1.88.12-3.79.33-5.63.73-1.73.37-3.36,1.22-4.28,2.79-.66,1.13-.29,2.79.9,3.42s2.71.31,3.42-.9h0Z"/>
      <path class="cls-1" d="m47.33,56.15c1-.37,2-.75,3.03-1.01.26-.07.51-.13.77-.18.06-.01.34-.1.39-.07-.07-.05-.47.04-.08.01.51-.04,1-.03,1.51,0,.32.01-.53-.1-.22-.03.1.02.2.04.3.06.2.04.39.09.59.15.1.03.19.07.29.1.3.08-.46-.22-.18-.08.18.09.36.17.53.28.1.06.62.42.3.18s.15.15.24.24c.07.07.13.15.19.22.2.21-.26-.42-.13-.16.1.2.23.38.32.58.56,1.19,2.36,1.58,3.42.9,1.22-.79,1.49-2.15.9-3.42-1-2.12-3.31-3.55-5.58-3.89-2.77-.42-5.36.34-7.93,1.31-1.22.46-2.19,1.71-1.75,3.08.39,1.19,1.76,2.24,3.08,1.75h0Z"/>
      <path class="cls-1" d="m58.1,57.69c1.48-.48,2.94-1.01,4.44-1.42.34-.09.68-.18,1.02-.25.17-.04.34-.07.51-.1.8-.15-.22,0,.23-.04.34-.03.68-.05,1.02-.05.17,0,.34.01.5.02.42.04-.52-.14.21.04.16.04.33.09.49.13s.34.13.09.01c.27.12.51.28.76.43.39.23-.1-.12.1.06.1.1.22.19.32.29.21.2.41.41.6.63.06.07.37.48.09.1.09.12.18.24.26.36.17.25.33.5.49.75.35.57.67,1.17.98,1.76.61,1.16,2.32,1.61,3.42.9,1.18-.76,1.55-2.18.9-3.42-1.54-2.92-3.55-5.87-6.93-6.78-3.66-.98-7.41.61-10.84,1.73-1.24.41-2.18,1.75-1.75,3.08.4,1.24,1.74,2.18,3.08,1.75h0Z"/>
      <path class="cls-1" d="m73.11,61.99c.58-.1,1.16-.2,1.74-.28-.35.04.57-.06.51-.05.24-.02.49-.04.73-.06,1.14-.07,2-.06,2.94.18.27.07.52.15.78.24.49.16-.23-.16.26.11.37.21.74.41,1.1.65.13.09.41.32.14.1.18.15.35.3.52.46.34.32.66.67.96,1.03-.27-.32.13.17.18.25.11.16.22.33.33.49.23.37.45.75.64,1.13.11.21.21.43.3.64-.21-.47.14.37.14.38.2.55.37,1.11.52,1.67.59,2.23.75,4.05.97,6.3.13,1.3,1.06,2.56,2.5,2.5,1.25-.06,2.64-1.11,2.5-2.5-.5-5.2-1.19-10.48-4.71-14.59-1.51-1.76-3.56-3.12-5.82-3.7-2.83-.73-5.74-.27-8.58.2-1.29.22-2.13,1.88-1.75,3.08.45,1.4,1.69,1.98,3.08,1.75h0Z"/>
      <path class="cls-1" d="m30.23,53.47c-2.88,4.16-5.31,8.59-7.28,13.24-1.01,2.37-1.91,4.79-2.67,7.25-.72,2.34-1.51,4.8-1.68,7.25s.77,4.84,2.93,6.08c1.92,1.1,4.34.93,6.31.07,4.6-2.01,5.38-7.48,6.91-11.69,2.02-5.58,5-10.76,7.91-15.9,1.59-2.8-2.73-5.33-4.32-2.52-2.27,4.01-4.55,8.03-6.43,12.24-.96,2.15-1.85,4.35-2.58,6.6-.55,1.69-.94,3.48-1.84,5.04-.68,1.18-1.63,1.98-2.87,1.95-.12,0-.35.01-.64-.12.24.1-.28-.27-.11-.07-.41-.49-.33-1.33-.23-2,.62-4.11,2.21-8.34,3.83-12.15,1.9-4.48,4.3-8.75,7.07-12.75.77-1.11.2-2.78-.9-3.42-1.24-.73-2.65-.22-3.42.9h0Z"/>
      <path class="cls-1" d="m38.43,60.12c.38.63.12,1.38-.07,2.06-.33,1.18-.73,2.35-1.18,3.49-.92,2.32-2.14,4.53-3.12,6.83-1.99,4.7-3.55,9.55-4.62,14.54-.68,3.14,4.14,4.48,4.82,1.33,1.14-5.3,2.78-10.5,5.03-15.44,1.15-2.53,2.42-4.97,3.31-7.61s1.61-5.24.14-7.71c-1.65-2.76-5.97-.25-4.32,2.52h0Z"/>
      <path class="cls-1" d="m29.76,88.75c.25,1.08-.14,2.24-.17,3.33-.02.85.1,1.74.39,2.54.8,2.19,2.89,3.72,5.3,3.18,2.09-.47,3.53-2.2,4.79-3.81,1.34-1.72,2.5-3.55,3.49-5.49,1.95-3.79,3.38-7.83,4.87-11.82,1.72-4.6,3.43-9.2,5.15-13.8.47-1.27-.53-2.74-1.75-3.08-1.4-.38-2.6.48-3.08,1.75-2.65,7.11-5.05,14.4-8.07,21.36-1.3,3-2.83,6.02-4.94,8.53-.11.13-1.43,1.35-1.42,1.45,0-.04.6.29.51.35-.08.05-.21-.5-.22-.55-.12-.58.07-1.5.14-2.17.12-1.06.08-2.04-.17-3.09-.73-3.13-5.56-1.81-4.82,1.33h0Z"/>
      <path class="cls-1" d="m49.47,63.3c1.03,2.49.44,4.93-.45,7.37-.99,2.7-2.26,5.31-3.37,7.96-2.17,5.22-4.43,10.87-4.91,16.55-.19,2.34.38,4.87,2.31,6.37,2.31,1.8,5.49,1.31,7.67-.45s3.01-4.42,3.92-6.92c1.08-2.96,2.16-5.93,3.23-8.89s2.2-6.21,3.39-9.28c.88-2.27,2.02-4.81,4.02-6.33,1.07-.82,1.64-2.16.9-3.42-.62-1.06-2.34-1.72-3.42-.9-3.99,3.03-5.67,7.49-7.33,12.05-1.99,5.46-3.96,10.92-5.96,16.37-.41,1.11-1.5,4.51-3.31,3.91-.22-.07-.34-.53-.4-.87-.13-.66-.05-1.58.07-2.31.89-5.26,2.86-10.36,4.92-15.26,2.22-5.26,5.95-11.48,3.53-17.3-.52-1.25-1.66-2.14-3.08-1.75-1.18.32-2.27,1.82-1.75,3.08h0Z"/>
      <path class="cls-1" d="m61.37,66.95c-1.23,5.36-2.72,10.66-4.49,15.87-.91,2.68-1.89,5.33-2.94,7.96-.99,2.49-2.22,5.03-2.16,7.78.06,2.54,1.22,4.87,3.4,6.23,1.84,1.15,4.26,1.37,6.12.14,1.21-.8,1.93-2.04,2.61-3.27s1.41-2.54,2.12-3.8c1.34-2.39,2.69-4.78,4.06-7.15,3.21-5.59,6.5-11.14,9.85-16.66,1.68-2.76-2.65-5.27-4.32-2.52-5.16,8.47-10.15,17.04-14.98,25.71-.56,1-1.05,2.1-1.7,3.05-.09.13-.37.46-.4.49,0,0,.37-.06,0,0-.17.03-.04.05-.34-.04-1.26-.4-1.58-1.83-1.36-3.2.38-2.32,1.58-4.56,2.43-6.74s1.66-4.41,2.42-6.64c1.77-5.21,3.26-10.51,4.49-15.87.72-3.13-4.1-4.47-4.82-1.33h0Z"/>
      <path class="cls-1" d="m78.13,74.69c3,.49,5.55,1.8,8.2,3.24s5.33,3.13,7.83,4.95c1.09.8,2.79.19,3.42-.9.74-1.26.2-2.62-.9-3.42-2.58-1.88-5.28-3.59-8.1-5.09s-5.89-3.06-9.12-3.59c-1.29-.21-2.75.33-3.08,1.75-.27,1.21.37,2.85,1.75,3.08h0Z"/>
      <path class="cls-1" d="m95.83,84.18c-.32-.08-.41-.11-.25-.08.18.16.35.32.51.49.31.32.61.67.91,1,.68.74,1.38,1.47,2.09,2.19,1.34,1.34,2.72,2.64,4.15,3.87,2.97,2.56,6.13,4.92,9.5,6.92,6.73,4,14.26,6.56,22.11,6.88,3.22.13,3.21-4.87,0-5-7.52-.31-14.65-3.04-20.96-7.05-3.19-2.02-6.16-4.36-8.94-6.92-1.39-1.28-2.73-2.61-4.02-3.99-1.51-1.61-2.75-3.15-5.12-3.32-1.35-.1-2.5,1.22-2.5,2.5,0,1.44,1.15,2.4,2.5,2.5h0Z"/>
      <path class="cls-1" d="m80.36,120.68c8.34-1.2,16.84-1.48,25.25-.91,3.9.27,7.84.63,11.66,1.51s6.82,2.33,9.77,4.68c3.41,2.72,7.36,5.35,11.93,4.02,3.08-.9,1.77-5.72-1.33-4.82-3.34.97-6.36-2.22-8.76-4.06-3.04-2.32-6.57-3.79-10.29-4.64-8.07-1.86-16.73-2.16-24.99-1.91-4.88.15-9.74.62-14.57,1.31-1.34.19-2.07,1.89-1.75,3.08.39,1.44,1.73,1.94,3.08,1.75h0Z"/>
      <path class="cls-1" d="m136.31,128.32c.17.97.71,1.82,1.33,2.56.5.6,1.19,1.11,1.9,1.45,1.02.49,1.99.71,3.1.85.8.1,1.6.1,2.4.09.65,0,1.31-.27,1.77-.73.43-.43.76-1.15.73-1.77-.06-1.34-1.1-2.51-2.5-2.5-.82,0-1.64.01-2.46-.09l.66.09c-.55-.08-1.1-.21-1.62-.42l.6.25c-.34-.15-.66-.34-.96-.56l.51.39c-.27-.21-.5-.45-.71-.71l.39.51c-.16-.22-.3-.45-.4-.7l.25.6c-.08-.2-.13-.4-.17-.61-.1-.58-.66-1.21-1.15-1.49-.54-.31-1.33-.45-1.93-.25s-1.19.57-1.49,1.15c-.33.63-.37,1.23-.25,1.93h0Z"/>
      <path class="cls-1" d="m136.96,104.91c-.38.32.32-.2.41-.26.13-.07.26-.14.4-.2-.25.1-.25.1.03,0,.25-.07.5-.16.76-.21.11-.03.22-.05.33-.07-.29.03-.28.03.01,0,.61-.03,1.22-.04,1.83.04-.5-.07.17.05.31.08.34.08.68.17,1.02.27s.67.22,1,.34c-.01,0,.71.29.38.15.65.28,1.29.59,1.92.91.48.24.97.47,1.44.75.1.06.79.58.38.23.1.09.61.73.32.29.74,1.08,2.23,1.66,3.42.9,1.07-.69,1.69-2.27.9-3.42-.97-1.42-2.31-2.25-3.82-3s-3.18-1.56-4.87-2.04c-3.38-.97-6.97-.58-9.72,1.72-1.01.84-.93,2.68,0,3.54,1.07.98,2.46.9,3.54,0h0Z"/>
      <path class="cls-1" d="m149.64,108.3c.05,0,.59.06.15,0s.06.02.15.04c.27.06.53.13.79.21.15.05.31.13.46.17-.13-.03-.44-.21-.15-.05.24.13.48.25.71.4.1.06.3.25.41.27-.1-.03-.38-.32-.12-.09.21.18.41.36.6.55.11.12.22.24.33.36.22.25-.04,0-.09-.12.11.26.35.51.48.75.07.12.13.25.19.37.21.41-.1-.33-.01-.03s.19.55.25.83c.03.14.06.28.09.43.09.47-.02-.38,0-.06,0,.29.04.58.03.87,0,.15-.01.29-.02.44-.02.48.08-.37.02-.06-.06.29-.11.57-.19.85-.04.14-.08.28-.13.42-.03.1-.27.5-.07.19s-.06.1-.1.17c-.08.15-.17.3-.26.45-.68,1.12-.28,2.8.9,3.42s2.69.29,3.42-.9c1.82-2.98,1.91-6.87.21-9.92s-4.74-4.72-8.04-4.98c-1.31-.1-2.56,1.22-2.5,2.5.06,1.44,1.1,2.39,2.5,2.5h0Z"/>
      <path class="cls-1" d="m157.09,115.1c-.57-1.08-1.2-2.12-1.91-3.1s-1.53-2.25-2.65-2.86c-3.14-1.72-5.44,1.4-7.07,3.62-2.89,3.93-5.23,8.76-4.66,13.76.16,1.36,1.02,2.47,2.5,2.5,1.07.02,2.16-.12,3.19-.41l-3.16-2.41c.02,1.37.03,2.74.05,4.1.04,3.22,5.04,3.22,5,0-.02-1.37-.03-2.74-.05-4.1-.02-1.62-1.58-2.85-3.16-2.41-.7.19-1.14.25-1.86.23l2.5,2.5c-.4-3.53.91-6.65,2.86-9.63.45-.68.92-1.35,1.41-2,.25-.33.51-.67.79-.98.04-.04.43-.4.42-.43-.08.15-.24.18-.47.09-.25.11-.48.08-.68-.08-.43-.09-.17-.1.01.15.12.17.27.32.4.48.24.31.47.63.7.96.56.82,1.07,1.68,1.53,2.56.63,1.2,2.29,1.56,3.42.9,1.21-.71,1.53-2.22.9-3.42h0Z"/>
      <path class="cls-1" d="m152.82,117.35c.66,3.5,2.1,6.76,3.06,10.17.79,2.8,1.33,6.09.04,8.83-.57,1.22-.34,2.7.9,3.42,1.09.63,2.84.33,3.42-.9,1.74-3.71,1.69-7.7.74-11.62s-2.61-7.37-3.34-11.23c-.25-1.33-1.85-2.08-3.08-1.75-1.39.38-2,1.74-1.75,3.08h0Z"/>
      <path class="cls-1" d="m143.26,131.29c.79,3.53-2.55,6.61-4.89,8.72-2.87,2.6-5.68,5.19-7.01,8.94s-1.21,8.51-1.07,12.56c.08,2.16.31,4.35.85,6.45s1.44,3.98,2.38,5.87c1.37,2.74,3.87,7.3,1.37,10.15-.89,1.01-1,2.54,0,3.54.91.91,2.64,1.02,3.54,0,2.74-3.12,2.97-7.45,1.64-11.26-1.42-4.04-3.94-7.5-4.55-11.83-.3-2.16-.28-4.37-.23-6.55.04-2.04.02-4.14.48-6.14.9-3.93,4.07-6.26,6.88-8.87,3.59-3.33,6.58-7.81,5.43-12.91-.7-3.14-5.53-1.81-4.82,1.33h0Z"/>
      <path class="cls-1" d="m134.13,184.51c-1.97,2.6-3.4,5.53-4.98,8.37-1.67,3-3.63,5.57-6.1,7.96-1.1,1.07-2.2,2.23-3.43,3.15-1.11.84-1.98.92-3.3.82-3.02-.22-5.77-.47-7.74,2.27l2.82-1.15c-5.78-1.35-11.83-1.28-17.56.26-2.8.76-5.54,1.87-8.07,3.3-2.27,1.28-4.56,3.13-7.3,3.07-3.22-.07-3.22,4.93,0,5,3.01.07,5.66-1.3,8.19-2.8,2.33-1.39,4.69-2.59,7.29-3.4,5.23-1.63,10.8-1.87,16.13-.62,1.17.27,2.15-.21,2.82-1.15-.25.35.28,0,.29,0,.64-.07,1.31.03,1.94.09,1.34.12,2.65.25,3.98-.03,3.26-.68,5.86-3.68,8.12-5.93,2.44-2.43,4.45-5.15,6.13-8.15s3.07-5.9,5.08-8.56c.82-1.08.17-2.8-.9-3.42-1.28-.75-2.6-.18-3.42.9h0Z"/>
      <path class="cls-1" d="m31.66,215.94c-2.37.05-4.25,1.28-5.99,2.76-.67.57-1.34,1.15-2.02,1.72.68-.56.05-.05-.14.08s-.38.25-.57.36-.39.21-.59.31c-.35.17.52-.18.24-.1-.12.04-.24.09-.37.13-1.25.39-2.17,1.76-1.75,3.08s1.74,2.16,3.08,1.75c1.97-.62,3.51-1.91,5.04-3.25.32-.28.63-.55.96-.82.07-.06.15-.12.22-.18.23-.19-.51.38-.2.15.18-.13.36-.26.54-.38.15-.1.31-.19.46-.28.09-.05.19-.1.28-.15s.42-.19,0,0-.11.05,0,0,.2-.07.3-.1c.21-.06.41-.1.62-.13l-.66.09c.18-.02.36-.03.55-.04,1.31-.03,2.56-1.13,2.5-2.5s-1.1-2.53-2.5-2.5h0Z"/>
      <path class="cls-1" d="m32.21,220.99h2.89c.34.01.67-.06.96-.22.31-.1.58-.27.8-.52.24-.23.42-.49.52-.8.16-.3.23-.62.22-.96-.03-.65-.24-1.32-.73-1.77s-1.09-.73-1.77-.73h-2.89c-.34-.01-.67.06-.96.22-.31.1-.58.27-.8.52-.24.23-.42.49-.52.8-.16.3-.23.62-.22.96.03.65.24,1.32.73,1.77s1.09.73,1.77.73h0Z"/>
      <path class="cls-1" d="m158.43,139.5c2.74-.84,5.47.23,8.02,1.24,2.98,1.18,5.92,2.45,9.17,2.63,3.77.21,7.04-1.65,10.62-2.42,1.17-.25,2.57-.33,3.69.16.62.27,1.02.74,1.52,1.17.79.7,1.62,1.3,2.65,1.6,1.67.49,3.36.56,5.02,1.18,1.42.53,2.82,1.22,4.05,2.12,1.8,1.31,3.49,3.44,2.44,5.74-1.24,2.72-4.52,3.57-7.24,3.5-3.76-.1-7.48-1.43-11.11-2.31-2.3-.56-4.44-.65-6.46.76-1.25.87-2.35,1.82-3.82,2.31-2.54.84-5.12.78-6.82-1.35-1.46-1.83-4.16-.17-4.27,1.77-.19,3.42-.33,8.15-3.65,10.17-1.63.99-3.46.9-4.86,2.39s-1.93,3.76-1.36,5.76c.88,3.09,5.7,1.78,4.82-1.33-.33-1.17.78-1.24,1.83-1.57,1.88-.6,3.52-1.74,4.75-3.28,2.79-3.48,3.22-7.83,3.46-12.14l-4.27,1.77c2.07,2.6,5.55,3.6,8.77,3.23,1.78-.2,3.44-.69,5.05-1.48.69-.34,1.33-.74,1.95-1.2.57-.43,1.21-1.13,1.95-1.25.89-.14,2.09.39,2.93.6,1.03.26,2.07.52,3.1.78,2.19.55,4.38,1.05,6.62,1.28,4.05.41,8.3-.55,11.21-3.54,2.74-2.81,3.46-6.77,1.75-10.32-1.55-3.21-4.9-5.31-8.07-6.65-1.98-.84-3.88-1.24-5.97-1.64-.67-.13-.96-.48-1.46-.93-.8-.73-1.64-1.32-2.64-1.74-3.9-1.64-7.88-.13-11.66,1.09-1.94.63-3.83,1.02-5.86.59-1.89-.4-3.69-1.13-5.48-1.85-3.75-1.51-7.69-2.89-11.73-1.66-3.07.94-1.76,5.76,1.33,4.82h0Z"/>
      <path class="cls-1" d="m155.97,175.32c2.34,6.49,5.78,15.79.33,21.76-1.34,1.47-3.02,2.44-3.87,4.31-.93,2.06-.93,4.51-1.18,6.73-.54,4.78-1.09,9.56-1.63,14.34-.15,1.34,1.26,2.5,2.5,2.5,1.48,0,2.35-1.15,2.5-2.5.54-4.78,1.09-9.56,1.63-14.34.22-1.89.04-4.28,1.54-5.66,1.43-1.3,2.76-2.49,3.78-4.16,4.67-7.58,1.99-16.61-.78-24.32-.46-1.27-1.7-2.12-3.08-1.75-1.23.34-2.21,1.8-1.75,3.08h0Z"/>
      <path class="cls-1" d="m202.17,170c7.68,1.72,10.44,10.08,11.42,16.96.58,4.06.9,8.2,1.11,12.29s.22,7.9-.3,11.81c-.58,4.3-1.86,8.46-4.11,12.18-1.67,2.76,2.65,5.28,4.32,2.52,4.66-7.7,5.51-16.86,5.13-25.67-.19-4.46-.58-8.93-1.17-13.35s-1.66-9.32-4.18-13.32-6.25-7.2-10.89-8.24c-3.13-.7-4.47,4.12-1.33,4.82h0Z"/>
      <path class="cls-1" d="m200.4,159.8l-.05,8.98-.02,4.31c0,.72,0,1.44-.01,2.15s.04.89-.18,1.26c-.69,1.16-.26,2.74.9,3.42s2.73.27,3.42-.9c.89-1.5.86-3.18.87-4.87l.02-4.67.05-9.7c0-1.35-1.15-2.5-2.5-2.5s-2.49,1.14-2.5,2.5h0Z"/>
      <path class="cls-1" d="m160.81,182.66c14.07,2.42,28.69,4.64,42.27-1.15,1.24-.53,1.52-2.36.9-3.42-.75-1.29-2.17-1.43-3.42-.9-12.15,5.17-25.89,2.8-38.42.64-1.33-.23-2.69.35-3.08,1.75-.33,1.2.41,2.85,1.75,3.08h0Z"/>
      <path class="cls-1" d="m205.03,179.56l.28-1.16c.1-.33.12-.66.04-1-.02-.33-.11-.64-.3-.93-.16-.29-.37-.53-.64-.7-.24-.22-.52-.37-.85-.45l-.66-.09c-.45,0-.87.12-1.26.34l-.51.39c-.31.31-.52.68-.64,1.1l-.28,1.16c-.1.33-.12.66-.04,1,.02.33.11.64.3.93.16.29.37.53.64.7.24.22.52.37.85.45l.66.09c.45,0,.87-.12,1.26-.34l.51-.39c.31-.31.52-.68.64-1.1h0Z"/>
      <path class="cls-1" d="m160.33,199.62c4.63-.13,9.26-.09,13.89.13,1.31.06,2.56-1.19,2.5-2.5-.06-1.41-1.1-2.43-2.5-2.5-4.63-.22-9.26-.26-13.89-.13-1.31.04-2.56,1.12-2.5,2.5s1.1,2.54,2.5,2.5h0Z"/>
      <path class="cls-1" d="m154.85,215.06c7.19.88,14.43,1.34,21.67,1.38,3.22.02,3.22-4.98,0-5-7.25-.04-14.48-.5-21.67-1.38-1.34-.16-2.5,1.27-2.5,2.5,0,1.49,1.15,2.33,2.5,2.5h0Z"/>
      <path class="cls-1" d="m229.94,217.88c1.32,1.59,3.32,2.32,5.32,2.59s4.08-.14,6.01.38c1.83.5,3.41,1.78,5.14,2.53,2.23.98,4.49,1.54,6.9,1.84,1.34.16,2.5-1.27,2.5-2.5,0-1.49-1.15-2.34-2.5-2.5-1.73-.21-3.51-.72-5.09-1.48-1.77-.85-3.38-2-5.27-2.61s-4-.47-6.01-.53c-1.34-.04-2.59-.22-3.46-1.26s-2.64-.89-3.54,0c-1.03,1.03-.87,2.49,0,3.54h0Z"/>
    </g>
  </g>
</svg>