<?xml version="1.0" encoding="UTF-8"?>
<svg id="Layer_2" data-name="Layer 2" xmlns="http://www.w3.org/2000/svg" viewBox="0 0 290.18 208.72">
  <defs>
    <style>
      .cls-1 {
        fill: #f56234;
      }
    </style>
  </defs>
  <g id="Lag_1" data-name="Lag 1">
    <g>
      <path class="cls-1" d="m148.27,46.12c-1.25,6.93-7.62,10.82-13.56,13.49-3.63,1.63-7.35,3.03-10.91,4.81s-7.27,3.94-10.81,6.06c-3.16,1.89-6.54,3.75-8.88,6.68-2.19,2.74-3.33,6.26-3.14,9.78.39,7.31,5.79,12.07,12.33,14.36,7.17,2.51,15.58,1.86,21.82,6.68,1.07.83,2.8.16,3.42-.9.76-1.29.18-2.59-.9-3.42-5.56-4.29-12.69-4.58-19.26-6.11-5.3-1.24-11.49-3.76-12.36-9.87-.41-2.85.45-5.84,2.43-7.94,2.34-2.48,5.58-4.07,8.48-5.8,3.42-2.03,6.87-4.01,10.45-5.73s7-2.97,10.45-4.56c6.84-3.15,13.82-8.3,15.24-16.2.24-1.33-.36-2.69-1.75-3.08-1.21-.33-2.83.41-3.08,1.75h0Z"/>
      <path class="cls-1" d="m134.02,105.48l.65,11.26,1.84-2.41c-1.63.32-3.19.86-4.69,1.59-1.39.67-3.17,1.61-4.01,2.96-1.15,1.85-.02,3.5.9,5.11.56.97,1.36,2.32.83,3.43-.28.6-.82,1.06-1.17,1.62-.42.67-.69,1.41-.8,2.2-.23,1.67.35,3.27,1.4,4.56,2.27,2.81,5.89,2.96,9.22,2.66,1.34-.12,2.5-1.06,2.5-2.5,0-1.26-1.15-2.62-2.5-2.5-1.51.14-3.62.53-4.96-.42-1.06-.76-.73-1.24-.09-2.1,1.27-1.69,1.78-3.47,1.42-5.58-.17-.97-.52-1.88-.94-2.76-.21-.45-1.31-1.9-1.3-2.17l-.34,1.26c.29-.6,1.9-1.25,2.54-1.55,1.05-.48,2.18-.77,3.31-.99,1.02-.2,1.89-1.38,1.84-2.41l-.65-11.26c-.18-3.2-5.19-3.22-5,0h0Z"/>
      <path class="cls-1" d="m136.12,136.95c.4,1.88-.25,3.84-.57,5.68-.38,2.24-.46,4.46.22,6.66,1.2,3.9,4.02,7.02,6.91,9.78,2.32,2.23,5.87-1.3,3.54-3.54s-4.99-4.87-5.79-8.2c-.4-1.65-.06-3.37.27-5.06.44-2.24.73-4.41.25-6.67-.28-1.32-1.83-2.09-3.08-1.75-1.37.38-2.03,1.75-1.75,3.08h0Z"/>
      <path class="cls-1" d="m245.15,61.18c1.47,7.02,2.97,14.07,3.65,21.22.63,6.69.5,13.46-.45,20.12-1.91,13.36-6.56,26.19-12.05,38.45-3.12,6.97-6.51,13.81-9.93,20.64-1.44,2.87,2.88,5.4,4.32,2.52,12.32-24.63,25.24-51.02,23.31-79.34-.57-8.42-2.29-16.71-4.02-24.95-.28-1.32-1.83-2.09-3.08-1.75-1.37.38-2.02,1.75-1.75,3.08h0Z"/>
      <path class="cls-1" d="m145.68,159.69c9.69,3.72,19.48,7.43,29.82,8.85,10.93,1.5,21.92-.26,32.8-1.42,6.22-.66,12.44-1.33,18.66-1.99,1.34-.14,2.5-1.05,2.5-2.5,0-1.24-1.15-2.64-2.5-2.5-10.81,1.15-21.61,2.39-32.42,3.45-5.42.53-10.87.85-16.31.3-5-.5-9.93-1.7-14.74-3.15-5.59-1.68-11.04-3.77-16.49-5.86-1.26-.48-2.74.53-3.08,1.75-.39,1.41.48,2.59,1.75,3.08h0Z"/>
      <path class="cls-1" d="m228.28,165.84c.41.11.45.08.12-.07.18.16.34.34.5.52.22.25.42.52.62.79.61.79,1.2,1.6,1.79,2.41,1.16,1.63,2.27,3.29,3.33,4.99,2.04,3.28,3.87,6.68,5.49,10.18,3.27,7.07,5.55,14.58,6.93,22.23.24,1.33,1.86,2.08,3.08,1.75,1.4-.38,1.99-1.74,1.75-3.08-1.5-8.38-4.15-16.51-7.79-24.21-1.77-3.74-3.79-7.37-6.04-10.85-1.17-1.8-2.39-3.56-3.68-5.27s-2.54-3.86-4.74-4.22c-1.33-.21-2.69.34-3.08,1.75-.33,1.19.41,2.86,1.75,3.08h0Z"/>
      <path class="cls-1" d="m167.77,206.32c4.45-10.48,9.8-22.41,21.85-25.52,6.13-1.59,13.07-1.63,19.28-.51s11.89,3.47,16.21,7.92,7.08,10.81,5.86,17.04l4.91.66c.03-.71.06-1.41.08-2.12.13-3.22-4.87-3.21-5,0-.03.71-.06,1.41-.08,2.12-.11,2.77,4.36,3.46,4.91.66,1.3-6.62-.54-13.41-4.54-18.79-4.25-5.72-10.34-9.49-17.16-11.42-7.06-2-14.68-2.17-21.91-1.14-7.06,1.01-13.32,4.21-18.02,9.62-4.81,5.54-7.86,12.27-10.7,18.96-.53,1.24-.37,2.68.9,3.42,1.05.61,2.89.35,3.42-.9h0Z"/>
      <path class="cls-1" d="m140.85,154.88c-10.57,10.04-18.47,22.78-22.86,36.67-1.24,3.93-2.18,7.96-2.83,12.03-.21,1.33.34,2.69,1.75,3.08,1.19.33,2.86-.4,3.08-1.75,2.17-13.66,7.77-26.79,16.33-37.67,2.47-3.14,5.17-6.08,8.06-8.83,2.34-2.22-1.2-5.75-3.54-3.54h0Z"/>
      <path class="cls-1" d="m148.8,22.6c-3.93-4.54-8.1-9.18-13.73-11.59-4.7-2.01-10.52-2.1-14.99.59-5.17,3.1-6.91,9.36-5.2,14.97,1.8,5.9,6.64,9.95,11.94,12.71,11.25,5.86,23.99,9.14,36.41,11.36,12.79,2.28,25.76,3.36,38.7,4.37,14.48,1.12,29.01,2.15,43.32,4.72,1.33.24,2.69-.36,3.08-1.75.33-1.21-.41-2.84-1.75-3.08-24.01-4.32-48.49-4.37-72.63-7.62-11.85-1.6-23.65-4.04-34.9-8.17-5.08-1.87-10.69-3.9-14.86-7.46-3.44-2.94-6.37-7.93-4.43-12.54s7.64-5.26,11.8-4.08c5.75,1.64,9.94,6.75,13.69,11.1.88,1.02,2.63.91,3.54,0,1.01-1.01.89-2.51,0-3.54h0Z"/>
      <path class="cls-1" d="m244.29,59.36c7.53,1.43,15.33,2.51,23.01,2.31,6.76-.18,13.96-1.92,18.69-7.1,4.2-4.6,5.81-11.98,2.2-17.44-3.83-5.79-11.49-7.03-17.93-6.75-4.25.19-8.33,1.25-12.43,2.26-3.77.93-7.73,1.87-11.63,1.24l1.49,1.15c-1.5-2.79-2.99-5.57-4.49-8.36s-5.84-.31-4.32,2.52c.95,1.76,1.89,3.52,2.84,5.28.39.73.79,1.47,1.18,2.2.77,1.43,1.46,1.98,3.08,2.19,3.68.48,7.35-.06,10.94-.87,6.72-1.52,13.39-3.67,20.34-2.13,2.61.58,5.36,1.7,6.81,4.1,1.34,2.21,1.37,4.94.6,7.35-1.88,5.82-8.57,8.54-14.14,9.14-4.03.44-8.13.2-12.15-.15-4.28-.36-8.52-.98-12.74-1.78-1.33-.25-2.7.37-3.08,1.75-.34,1.22.41,2.82,1.75,3.08h0Z"/>
      <path class="cls-1" d="m243.38,26.51c-11.29-14.68-28.36-24.04-46.73-26.11-5.08-.57-10.21-.53-15.28.14-1.34.18-2.5,1.02-2.5,2.5,0,1.21,1.15,2.68,2.5,2.5,16.82-2.22,34.42,2.71,47.66,13.35,3.71,2.98,7.14,6.37,10.04,10.15.82,1.07,2.15,1.64,3.42.9,1.05-.62,1.73-2.34.9-3.42h0Z"/>
      <path class="cls-1" d="m146.12,27.39c3.83,2.1,7.82-.06,10.28-3.17,2.3-2.9,4.49-5.75,7.23-8.27,5.21-4.8,11.5-8.36,18.28-10.4,3.07-.93,1.76-5.75-1.33-4.82-6.74,2.03-12.95,5.39-18.38,9.86-2.61,2.15-5.01,4.57-7.13,7.21-1.14,1.43-3.96,6.63-6.42,5.28-2.82-1.55-5.35,2.77-2.52,4.32h0Z"/>
      <path class="cls-1" d="m168.35,57.15c-4.37.09-9.02,1.22-12.14,4.49s-4.18,7.85-2.29,12.01c1.75,3.84,5.64,6.53,9.2,8.56,3.9,2.23,8.2,3.84,12.61,4.72,8.4,1.68,18.8,1.46,24.83-5.58,2.72-3.17,4.59-7.73,3.34-11.92s-6.25-6.73-9.99-8.55c-9.08-4.42-19.27-5.88-29.22-4.25-1.33.22-2.08,1.87-1.75,3.08.39,1.42,1.74,1.97,3.08,1.75,7.07-1.16,14.4-.39,21.15,1.98,3.35,1.18,6.53,2.8,9.48,4.79,1.26.85,2.41,1.68,2.6,3.29.17,1.42-.21,2.95-.86,4.21-3.31,6.5-11.2,7.54-17.74,6.92-6.87-.66-14.31-3.26-19.54-7.87-2.48-2.19-4.2-5.12-2.33-8.29s6.01-4.25,9.59-4.33c3.21-.07,3.22-5.07,0-5h0Z"/>
      <path class="cls-1" d="m164.9,61.49c1.95-.1,3.44,1.43,4.68,2.76,1.45,1.56,2.62,3.34,3.57,5.24,1.87,3.76,2.57,7.98,2.2,12.15-.12,1.35,1.23,2.5,2.5,2.5,1.45,0,2.38-1.15,2.5-2.5.47-5.28-.72-10.65-3.21-15.31-2.32-4.35-6.72-10.11-12.23-9.83-1.35.07-2.5,1.1-2.5,2.5,0,1.3,1.14,2.57,2.5,2.5h0Z"/>
      <path class="cls-1" d="m162.99,62.3c3.22,0,3.22-5,0-5s-3.22,5,0,5h0Z"/>
      <path class="cls-1" d="m162.99,61.91c3.22,0,3.22-5,0-5s-3.22,5,0,5h0Z"/>
      <path class="cls-1" d="m161.46,63.45c3.22,0,3.22-5,0-5s-3.22,5,0,5h0Z"/>
      <path class="cls-1" d="m161.46,62.68c3.22,0,3.22-5,0-5s-3.22,5,0,5h0Z"/>
      <path class="cls-1" d="m159.92,63.45c3.22,0,3.22-5,0-5s-3.22,5,0,5h0Z"/>
      <path class="cls-1" d="m159.92,63.06c3.22,0,3.22-5,0-5s-3.22,5,0,5h0Z"/>
      <path class="cls-1" d="m160.69,63.06c3.22,0,3.22-5,0-5s-3.22,5,0,5h0Z"/>
      <path class="cls-1" d="m157.61,67.35c.72,4.71,4.3,8.59,8.74,10.11l.66-4.91c-1.11.05-2.23.1-3.34.15-.14,0-.27.01-.41.01l.17.05c.75,1.07,1.06,1.34.92.79-.03-.15-.03-.17-.01-.05.04-.22-.15-1.16-.29-1.62-.64-2.17-2.07-3.96-3.96-5.17l-2.52,4.32c.82.38.85.4,1.49,1.05.51.51.97,1.07,1.45,1.6,1.19,1.32,2.56,2.33,4.19,3.03s2.95,1.23,4.47,2.22c1.32.86,2.43,1.86,3.56,3.14l1.1-4.18c-.13.03-.96.13-.44.09-.3.03-.6.05-.91.05-.15,0-.3,0-.44-.02.55.05.1.04.03-.01-.05-.03-.51-.21.02.05-.12-.06-.39-.35-.24-.13.07.11.41.24.19.17-.11-.03-.04-.14,0,.03-.02-.1-.04-.69-.05-.95-.05-.86-.18-1.74-.44-2.56-.97-3.06-3.17-5.38-5.08-7.87.17.23-.36-.49-.4-.55-.22-.3-.41-.61-.61-.93,0,0-.24-.4-.1-.17-.01-.02-.23-.42-.08-.15-.02-.03-.01-.56-.03-.03l-.09.16c.13-.23.15-.27.06-.12-.2.11-.39.36-.66.41-.07.01-.2,0-.27.03-.2.09-.07-.08.09.12-.17-.21.09.12.11.14.6.68,1.21,1.35,1.78,2.05,2.07,2.53,3.94,5.36,5.53,8.27.07.12.12.27.2.38.42.56-.35-1.04.09-1.3-.11.06-.27.28-.37.38-.37.36.12,0-.34.24-.16.08-.3.18-.47.25.29-.13-.17.05-.27.07-.05.01-.58.13-.31.09.23-.04-.4.01-.46.02-.39.04-.29,0-.11.02-.25-.03-.49-.11-.73-.18,0,0-.38-.15-.17-.06s-.32-.19-.37-.22c-.36-.18-.23-.14-.11-.05-.2-.15-.37-.34-.55-.52-.04-.04-.27-.37-.08-.09-.14-.21-.26-.43-.38-.66l-2.16,3.76c1.13,0,1.94.1,3.05.37,2.5.62,4.06-2.33,2.43-4.18-.62-.7-1.39-1.3-2.22-1.73-1.2-.62-2.71-.31-3.42.9-.65,1.12-.31,2.8.9,3.42.64.33.73.41,1.21.94l2.43-4.18c-1.43-.35-2.9-.54-4.38-.55-1.98-.01-3,2.11-2.16,3.76,1.01,2,3.04,3.62,5.25,4.04,2.49.47,4.94-.21,6.85-1.88.99-.86,1.77-2.06,1.71-3.41s-1.01-2.69-1.68-3.83c-1.16-1.97-2.45-3.87-3.84-5.68-.7-.91-1.41-1.82-2.15-2.69-.8-.95-1.63-1.94-2.76-2.53-2.82-1.46-5.93.46-6.16,3.56-.19,2.44,1.56,4.44,2.98,6.22.28.35.56.7.84,1.05.17.21.34.42.5.63.54.68-.12-.17.18.23.6.8,1.17,1.63,1.62,2.52,0,0,.32.76.16.33.09.24.17.48.24.72s.13.49.17.74c-.08-.44.02.3.02.39.09,1.53.26,3.08,1.42,4.21,1.82,1.77,4.43,1.66,6.74,1.2,1.97-.39,2.26-2.88,1.1-4.18-1.21-1.37-2.6-2.56-4.1-3.61s-3.26-1.82-5.01-2.57c-.35-.15-1.42-.66-1.79-.93-.39-.28-1.05-.99-1.49-1.48-1.11-1.25-2.23-2.53-3.78-3.24-1.23-.56-2.69-.35-3.42.9s-.24,2.69.9,3.42c.48.31.45.31.9.79.29.31.01-.07.24.33.11.19.22.38.33.57.07.16.08.16.02,0,.05.12.09.25.13.37.07.21.12.42.17.63.05.28.06.34.04.18-.05-.3-.02-.1.08.59.04.26.08.49.17.74,1.1,3.19,4.76,2.42,7.38,2.31,2.86-.13,3.34-3.99.66-4.91,0,0-.73-.28-.33-.11-.15-.07-.3-.14-.45-.21-.41-.21-.8-.44-1.17-.7-.1-.07-.45-.35-.19-.13-.16-.13-.32-.27-.47-.41-.34-.31-.65-.65-.95-.99l-.16-.19c.11.14.12.15.02,0-.12-.17-.24-.34-.35-.52-.22-.35-.41-.72-.6-1.09-.32-.65.09.36-.13-.32-.06-.2-.13-.39-.19-.59-.13-.44-.22-.89-.29-1.34-.2-1.34-1.88-2.07-3.08-1.75-1.43.39-1.95,1.74-1.75,3.08h0Z"/>
      <path class="cls-1" d="m158.68,64.44c3.22,0,3.22-5,0-5s-3.22,5,0,5h0Z"/>
      <path class="cls-1" d="m158.68,64.44c3.22,0,3.22-5,0-5s-3.22,5,0,5h0Z"/>
      <path class="cls-1" d="m156.95,66.17c3.22,0,3.22-5,0-5s-3.22,5,0,5h0Z"/>
      <path class="cls-1" d="m158.68,64.44c3.22,0,3.22-5,0-5s-3.22,5,0,5h0Z"/>
      <path class="cls-1" d="m156.51,67.47c3.22,0,3.22-5,0-5s-3.22,5,0,5h0Z"/>
      <path class="cls-1" d="m76.26,173.69c.85,3.93,1.71,7.85,2.56,11.78.81,3.71,1.51,7.47,2.93,11,.5,1.25,1.67,2.13,3.08,1.75,1.19-.33,2.25-1.81,1.75-3.08-1.42-3.53-2.12-7.3-2.93-11-.85-3.93-1.71-7.85-2.56-11.78-.29-1.32-1.82-2.09-3.08-1.75-1.36.37-2.03,1.75-1.75,3.08h0Z"/>
      <path class="cls-1" d="m85.92,198.28c17.27-6.01,33.3-15.09,47.36-26.79,1.04-.86.89-2.64,0-3.54-1.03-1.03-2.49-.87-3.54,0-13.36,11.11-28.74,19.79-45.15,25.5-1.27.44-2.12,1.71-1.75,3.08.34,1.24,1.79,2.19,3.08,1.75h0Z"/>
      <path class="cls-1" d="m27.61,195.08c-.22,3.5-.44,7.01-.65,10.51-.08,1.31,1.21,2.56,2.5,2.5,1.42-.06,2.41-1.1,2.5-2.5.22-3.5.44-7.01.65-10.51.08-1.31-1.21-2.56-2.5-2.5-1.42.06-2.41,1.1-2.5,2.5h0Z"/>
      <path class="cls-1" d="m1.93,162.48c4.68,7.82,9.8,15.43,15.49,22.55,5.27,6.6,11.69,12.2,18.94,16.53,2.06,1.23,4.86-1.3,3.42-3.42-.53-.77-1.05-1.55-1.58-2.32-1.8-2.65-6.13-.15-4.32,2.52.53.77,1.05,1.55,1.58,2.32l3.42-3.42c-6.9-4.13-12.92-9.46-17.93-15.75-5.41-6.79-10.24-14.1-14.7-21.54-1.65-2.76-5.98-.25-4.32,2.52h0Z"/>
      <path class="cls-1" d="m38.99,201.57c8.05-3.66,16.15-7.35,23.45-12.4,7.29-5.04,13.59-11.28,19.84-17.53,2.28-2.28-1.26-5.81-3.54-3.54-6.04,6.04-12.12,12.17-19.21,17-7.2,4.92-15.16,8.54-23.07,12.14-1.23.56-1.53,2.34-.9,3.42.74,1.26,2.19,1.46,3.42.9h0Z"/>
      <path class="cls-1" d="m105.4,147.17c4.28-3.9,8.55-7.8,12.83-11.7.97-.88.96-2.65,0-3.54-1.04-.95-2.5-.94-3.54,0-4.28,3.9-8.55,7.8-12.83,11.7-.97.88-.96,2.65,0,3.54,1.04.95,2.5.94,3.54,0h0Z"/>
      <path class="cls-1" d="m3.76,161.2c1.08-.5,2.03-1.16,2.96-1.9s1.68-1.62,2.41-2.56c.18-.29.28-.6.3-.93.07-.33.06-.66-.04-1-.16-.58-.61-1.21-1.15-1.49-.58-.31-1.28-.46-1.93-.25l-.6.25c-.38.22-.67.52-.9.9l-.05.06.39-.51c-.61.78-1.31,1.48-2.09,2.09l.51-.39c-.72.56-1.51,1.03-2.34,1.42-.54.25-1,.95-1.15,1.49-.16.6-.09,1.4.25,1.93s.86,1,1.49,1.15l.66.09c.45,0,.87-.12,1.26-.34h0Z"/>
      <path class="cls-1" d="m77.54,100.72c2.56-1.83,5.12-3.66,7.68-5.49.54-.39.97-.83,1.15-1.49.16-.6.09-1.4-.25-1.93-.68-1.05-2.28-1.71-3.42-.9-2.56,1.83-5.12,3.66-7.68,5.49-.54.39-.97.83-1.15,1.49-.16.6-.09,1.4.25,1.93.68,1.05,2.28,1.71,3.42.9h0Z"/>
      <path class="cls-1" d="m82.38,95.12c5.85,4.54,11.01,9.84,15.89,15.39,2.51,2.86,5.05,5.68,7.61,8.5,1.21,1.33,2.42,2.69,3.44,4.17s1.72,3.18,2.68,4.72,2.2,3.11,3.44,4.43c1.67,1.77,4.98-.05,4.18-2.43-.23-.68-.7-1.18-1.14-1.74-.84-1.06-2.66-.88-3.54,0-1.04,1.04-.84,2.47,0,3.54.64.8.04.08-.15-.47l4.18-2.43c-.41-.44-.78-.94-1.16-1.41-.28-.35-.56-.7-.84-1.05-.3-.38-.04-.04-.06-.08-.08-.11-.17-.22-.25-.34-1.04-1.49-1.71-3.2-2.68-4.73-1.02-1.61-2.27-3.1-3.53-4.54-2.5-2.87-5.13-5.63-7.63-8.51s-4.89-5.53-7.49-8.15c-2.97-3-6.1-5.82-9.43-8.41-1.07-.83-2.5-1.04-3.54,0-.86.86-1.07,2.7,0,3.54h0Z"/>
      <path class="cls-1" d="m120.19,132.39c.15-.17.31-.33.47-.48.07-.06.13-.12.2-.18.32-.28-.38.27-.14.1.33-.23.67-.45,1.03-.63.09-.05.22-.08.3-.15-.12.09-.55.22-.16.07.19-.07.38-.14.57-.19s.39-.11.59-.15c.11-.02.22-.04.33-.07.43-.09-.51.05-.2.02.4-.04.8-.06,1.21-.05.2,0,.4.04.6.04-.82-.03-.12-.01.13.04.4.09.77.23,1.15.35-.75-.23-.08-.03.13.09.2.11.39.22.58.35,1.1.72,2.81.25,3.42-.9.66-1.25.27-2.65-.9-3.42-3.93-2.58-9.69-1.85-12.87,1.61-.88.96-1.02,2.6,0,3.54.96.88,2.59,1.03,3.54,0h0Z"/>
      <path class="cls-1" d="m111.74,116.97c2.12-2.3,5.02-3.59,8.07-3.52s5.86,1.58,7.87,3.97c.87,1.03,2.64.9,3.54,0,1.02-1.02.87-2.5,0-3.54-2.79-3.33-7.06-5.33-11.4-5.43s-8.68,1.8-11.61,4.99c-.91.99-.98,2.55,0,3.54.93.93,2.62,1,3.54,0h0Z"/>
      <path class="cls-1" d="m83.74,170.07c1.18-4.1-2.58-7.04-6.26-7.44-1.55-.17-3.15.14-4.67-.11-1.36-.23-1.83-.68-1.76-2.07.16-2.95.77-6.54,2.89-8.75s5.17-3.32,8.05-4.15c5.92-1.7,14.06-2.05,18.14,3.59,1.56,2.15,2.16,4.91,1.87,7.53-.3,2.79-1.66,5.03-3.72,6.87-2.81,2.51-5.79,4.95-9.04,6.87-1.55.91-3.15,1.68-4.88,2.18-.8.23-1.62.42-2.45.52-.37.04-.86-.02-1.21.08.16.08.08.06-.24-.04.55.18.75.71.61,1.59,1.02-3.06-3.8-4.37-4.82-1.33-.75,2.25,1.09,4.18,3.18,4.64,1.92.43,4.19-.06,6.06-.58,3.93-1.09,7.46-3.29,10.67-5.75s6.8-4.94,8.82-8.43c1.87-3.24,2.4-7.04,1.82-10.71-1.35-8.47-9.5-13.17-17.58-13.17-4.57,0-9.2,1.21-13.35,3.06-3.74,1.66-6.79,4.35-8.29,8.21-.86,2.2-1.17,4.6-1.45,6.93-.29,2.48.26,4.88,2.34,6.43,1.84,1.36,4.12,1.58,6.34,1.55.7-.01,4.48-.2,4.09,1.16-.89,3.1,3.93,4.42,4.82,1.33h0Z"/>
      <path class="cls-1" d="m12.43,152.75c-1.49-7.87-2.67-15.87-3.14-23.87-.09-1.47-.15-3.01.18-4.46.14-.63.33-1.23.65-1.79.27-.47.72-.92.9-1.04.28-.18.27-.15.37-.19.09-.03.88-.21.52-.16.55-.07.98-.02,1.19.03,0,0,.76.23.36.08.06.02.65.38.31.13.11.08.45.54.22.2.14.26.15.27.04.05.07.29.08.32.03.09l4.91-.66c-.69-4.09,1.51-8.42,4.73-10.89,1.61-1.24,3.66-2.16,5.72-2.23.84-.03,1.71.09,2.46.42.46.2.78.41,1.07.74.12.14.2.36.21.45l4.91-.66c-1.02-3.32-.41-7.19,2.08-9.73.93-.95,2.29-1.87,3.69-1.73,1.31.13,2.28,1.18,2.17,2.45h5c-.59-6.69,6.43-12.81,12.95-11l-1.49-1.15c2.2,3.74,4.4,7.49,6.6,11.23,1.94,3.3,4.09,6.6,5.32,10.24,1.02,3.01,1.39,6.3.15,9.31-.49,1.19-1.25,2.33-2.26,3.13-.84.67-1.85,1.02-2.69,1.07-1.26.07-2.41-.16-3.48-.81-1-.61-1.46-1.32-1.69-2.48-.34-1.76-3.02-2.52-4.18-1.1-2.65,3.24-2.19,6.92-2.17,10.83,0,1.14-.15,2.31-.65,3.33-.09.18-.43.72-.43.72-.05.05-.55.51-.33.35-.27.21-.69.27-.85.24-.82-.19-1.46-1.2-1.89-2.2-.57-1.33-.75-2.78-1.09-4.17-.81-3.28-2.44-6.59-5.95-7.56-1.42-.39-3.35.76-3.16,2.41,1.06,9.34,2.34,22.77-7.96,27.64l3.67,1.49c-2.42-5.92-4.85-11.84-7.27-17.76-.47-1.15-1.42-1.99-2.74-1.79-1.18.18-2.22,1.19-2.17,2.46.19,4.43.03,8.89-.56,13.29-.29,2.13-.68,4.26-1.16,6.36-.37,1.61-.75,3.42-1.81,4.74-.61.76-1.82,1.59-2.84,1.22-.62-.23-1.04-.9-1.41-1.41-.62-.87-1.19-1.78-1.77-2.68-2.4-3.73-4.6-7.58-6.63-11.52-1.47-2.86-5.78-.34-4.32,2.52,1.84,3.59,3.83,7.11,5.99,10.52,1.84,2.91,3.79,6.94,7.56,7.53s7.17-1.96,8.67-5.29c1.61-3.57,2.15-7.66,2.66-11.51.6-4.57.81-9.16.62-13.76l-4.91.66c2.42,5.92,4.85,11.84,7.27,17.76.65,1.58,2.08,2.25,3.67,1.49,5.02-2.37,8.34-7.26,9.94-12.45,1.95-6.31,1.23-13.06.49-19.5l-3.16,2.41c1.02.28,1.59,1.29,1.99,2.46.54,1.57.73,3.23,1.22,4.81,1.05,3.37,3.38,6.88,7.3,6.85,3.72-.03,6.1-3.45,6.74-6.78.36-1.87.24-3.67.18-5.56-.04-1.46-.19-3.38.81-4.59l-4.18-1.1c1.06,5.46,7.69,8.17,12.66,6.49,5.96-2.01,8.62-8.87,7.97-14.73-.79-7.24-5.36-13.57-8.96-19.69-1-1.7-1.99-3.39-2.99-5.09-.49-.84-.94-1.74-1.49-2.54-.61-.88-1.45-1.19-2.46-1.38-2.95-.57-5.89-.17-8.64,1.02-5.78,2.5-10.24,8.58-9.67,15.04.28,3.21,4.71,3.21,5,0,.26-2.88-1.68-5.55-4.23-6.72-2.8-1.28-6.02-.7-8.48,1.06-4.96,3.53-6.8,10.28-5.05,16,.79,2.58,5.15,2.26,4.91-.66-.29-3.55-3.1-5.83-6.48-6.41s-6.83.36-9.66,2.15c-5.75,3.63-9,10.38-7.86,17.11.47,2.76,5.13,2.14,4.91-.66-.3-3.81-3.79-5.97-7.44-5.56-4.35.5-6.7,4.16-7.24,8.25-.6,4.58.26,9.45.8,14,.62,5.21,1.42,10.4,2.39,15.55.25,1.33,1.85,2.08,3.08,1.75,1.39-.38,2-1.74,1.75-3.08h0Z"/>
    </g>
  </g>
</svg>