<?xml version="1.0" encoding="UTF-8"?>
<svg id="Layer_2" data-name="Layer 2" xmlns="http://www.w3.org/2000/svg" viewBox="0 0 426.71 208.26">
  <defs>
    <style>
      .cls-1 {
        fill: #2a314d;
      }
    </style>
  </defs>
  <g id="Lag_1" data-name="Lag 1">
    <g>
      <path class="cls-1" d="m270.58,93.86c6.86,19.78,25.12,31.49,37.72,47.22,3.09,3.86,5.84,8.04,7.92,12.53,1.95,4.21,3.45,9.09,3.4,13.77,0,.85-.13,1.61-.8,2.18-.89.76-2.13,1.26-3.18,1.74-2.31,1.04-4.81,1.71-7.31,2.13-4.91.82-10.05.42-14.87-.75-11.59-2.81-21.42-10.17-30.24-17.89-1.02-.89-2.54-1-3.54,0-.91.91-1.02,2.64,0,3.54,8.56,7.5,17.88,14.52,28.81,18.14,10.2,3.38,22.77,3.65,32.2-2.15,2.57-1.58,3.89-3.9,3.92-6.92.03-2.72-.49-5.56-1.15-8.19-1.29-5.14-3.61-10.01-6.45-14.47-5.78-9.09-13.59-16.51-21.17-24.06-8.22-8.17-16.58-16.96-20.45-28.13-.44-1.28-1.71-2.12-3.08-1.75-1.24.34-2.19,1.79-1.75,3.08h0Z"/>
      <path class="cls-1" d="m260.85,153.65c-16.86.64-33.74.92-50.61.83s-33.58-.56-50.35-1.39c-9.5-.47-18.99-1.06-28.48-1.77-1.35-.1-2.5,1.22-2.5,2.5,0,1.44,1.15,2.4,2.5,2.5,16.83,1.25,33.68,2.14,50.55,2.65,16.78.51,33.58.65,50.37.42,9.51-.13,19.02-.38,28.53-.74,3.21-.12,3.22-5.12,0-5h0Z"/>
      <path class="cls-1" d="m130.7,153.33c-2.21-19.83-3.75-39.74-4.63-59.68-.14-3.2-5.14-3.22-5,0,.88,19.94,2.42,39.84,4.63,59.68.15,1.34,1.04,2.5,2.5,2.5,1.24,0,2.65-1.15,2.5-2.5h0Z"/>
      <path class="cls-1" d="m285.19,87.17c-23.73,1.26-47.47,2.52-71.23,3.22-23.56.69-47.15.83-70.71-.14-13.34-.55-26.66-1.46-39.93-2.82-1.35-.14-2.5,1.25-2.5,2.5,0,1.47,1.15,2.36,2.5,2.5,23.61,2.41,47.34,3.4,71.06,3.5s47.19-.66,70.76-1.74c13.35-.61,26.7-1.32,40.05-2.03,3.2-.17,3.22-5.17,0-5h0Z"/>
      <path class="cls-1" d="m284.52,91.67c12.57.95,25.34-1.74,36.52-7.55,9.89-5.15,20.55-13.65,19.99-25.96-.51-11.11-8.91-20.59-19.81-22.59-5.92-1.08-11.96-.29-17.47,2.1-5.06,2.19-9.04,6.02-13.45,9.23-3.94,2.86-8.63,5.44-13.55,3.46s-7.91-6.66-10.93-10.49c-7.16-9.08-15.84-16.9-25.54-23.18C221.71,4.66,198.47-2.44,176.31.77c-10.26,1.49-20.44,5.61-27.81,13.09-8.23,8.35-10.93,19.82-16.26,29.91-1.25,2.36-2.65,4.67-4.35,6.74-.85,1.04-1.02,2.51,0,3.54.88.88,2.68,1.05,3.54,0,7.21-8.82,9.64-20.08,15.35-29.75,5.07-8.58,13.31-14.19,22.78-16.97,20.05-5.87,42.52-.47,60.52,9.13,9.66,5.15,18.47,11.81,26.01,19.75,3.74,3.94,6.86,8.38,10.48,12.42s8.14,7.33,13.72,7.42c11.03.17,17.51-11.17,27.22-14.55,5.02-1.74,10.51-2,15.58-.32,4.58,1.52,8.32,4.76,10.63,8.98,2.17,3.96,2.99,8.71,1.74,13.1-1.43,5-5.34,8.97-9.45,11.94-9.41,6.8-20.91,10.81-32.49,11.53-3,.19-6,.15-9-.07-1.35-.1-2.5,1.22-2.5,2.5,0,1.44,1.15,2.4,2.5,2.5h0Z"/>
      <path class="cls-1" d="m127.64,49.78c-3.5,2.4-7.72,3.17-11.82,1.97s-7.47-3.86-10.73-6.41c-6.69-5.25-15.48-11.58-24.4-7.9-2.3.95-4.21,2.49-6.03,4.16-1.61,1.48-3.23,2.98-4.66,4.63-3.07,3.55-5.12,7.8-4.66,12.6.81,8.51,6.6,16.63,12.74,22.27,6.78,6.24,15.36,10.58,24.5,11.97,1.33.2,2.69-.34,3.08-1.75.33-1.18-.4-2.87-1.75-3.08-7.35-1.12-14.39-4.15-20.17-8.85s-11.18-11.31-13.03-18.68c-.99-3.95-.04-7.56,2.57-10.66,1.36-1.61,2.9-3.06,4.44-4.5,1.46-1.36,2.98-2.79,4.86-3.54,3.57-1.43,7.59-.31,10.89,1.34,3.74,1.88,6.92,4.61,10.22,7.14,3.63,2.78,7.6,5.44,12.16,6.38,4.94,1.02,10.15.04,14.32-2.81,1.11-.76,1.61-2.2.9-3.42-.65-1.1-2.3-1.66-3.42-.9h0Z"/>
      <path class="cls-1" d="m233.68,105.89c8.25-2.54,17.78,1.59,22.05,9.09.49.86.91,1.75,1.23,2.69.29.87.9,2.24.53,3.14s-1.56,1.55-2.2,2.26c-1.05,1.17-1.54,2.47-2.22,3.85-.5,1-1.08,1.44-2.13,1.83-1.47.55-3.02.97-4.53,1.41-3.17.93-6.37,1.76-9.59,2.46-6.28,1.34-12.67,2.11-19.1,1.9-5.24-.17-10.79-.85-15.54-3.25-3.8-1.92-7.26-5.12-7.62-9.61-.37-4.71,2.33-9.11,5.78-12.09,4.59-3.98,11.09-5.13,16.97-5.51,7.23-.46,14.53-.2,21.77-.2,3.22,0,3.22-5,0-5-7.24,0-14.54-.26-21.77.2-6.41.41-13.27,1.61-18.59,5.46-4.73,3.43-8.34,8.53-9.07,14.41s2.26,11.38,7.03,14.84,10.82,4.82,16.61,5.43c7.21.76,14.5.16,21.62-1.13,3.56-.65,7.08-1.49,10.56-2.45,1.74-.48,3.47-1,5.19-1.53s3.31-1.04,4.68-2.12,1.98-2.46,2.67-3.97c.61-1.33,1.58-2.06,2.57-3.1,2.45-2.58,2.21-5.74,1.08-8.88-4.12-11.45-17.58-18.58-29.33-14.96-3.07.94-1.76,5.77,1.33,4.82h0Z"/>
      <path class="cls-1" d="m240.32,104.85h.62c.34.01.67-.06.96-.22.31-.1.58-.27.8-.52.24-.23.42-.49.52-.8.16-.3.23-.62.22-.96l-.09-.66c-.12-.42-.33-.79-.64-1.1l-.51-.39c-.39-.23-.81-.34-1.26-.34h-.62c-.34-.01-.67.06-.96.22-.31.1-.58.27-.8.52-.24.23-.42.49-.52.8-.16.3-.23.62-.22.96l.09.66c.12.42.33.79.64,1.1l.51.39c.39.23.81.34,1.26.34h0Z"/>
      <path class="cls-1" d="m240.94,104.85c3.22,0,3.22-5,0-5s-3.22,5,0,5h0Z"/>
      <path class="cls-1" d="m240.94,104.85c3.22,0,3.22-5,0-5s-3.22,5,0,5h0Z"/>
      <path class="cls-1" d="m240.91,100.11c-3.16.11-6.45.45-8.9,2.66-1.23,1.11-1.93,2.64-2.57,4.14-.73,1.71-1.38,3.46-1.9,5.24-2.03,6.92-2.33,14.21-1.11,21.31.23,1.33,1.87,2.08,3.08,1.75,1.41-.39,1.98-1.74,1.75-3.08-.99-5.75-.71-11.71.76-17.35.66-2.56,1.43-5.58,2.95-7.79,1.26-1.84,3.96-1.81,5.96-1.88,3.21-.11,3.22-5.11,0-5h0Z"/>
      <path class="cls-1" d="m234.12,106.53c3.12.36,6.29,1.03,9.18,2.28,3.2,1.39,5.69,3.54,7.94,6.17,1.98,2.31,4.44,4.85,5.18,7.89.43,1.77-.42,4.51-2.27,4.59l1.26,4.66c4.51-3.46,6.03-9.31,3.7-14.51-.97-2.16-3.91-1.2-4.57.6-.7,1.9-1.4,3.8-2.1,5.7-.34.91-.67,1.82-1.01,2.74-.12.33-.21.7-.38,1.01-.05.07-.09.15-.11.24-.61.53-.21.57,1.21.1l1.24,2.16c.02-4.36.04-8.72.06-13.08,0-2.08-.12-4.23-2.11-5.4-1.57-.92-3.59-.8-5.12.13-1.65,1-2.47,3-2.5,4.86-.05,2.17.96,3.97,1.75,5.91.52,1.27.92,2.86.29,4.17-.35.73-1.4,1.48-2.18,1.09l1.15,2.82c1.58-4.53,3.16-9.06,4.73-13.6.77-2.22,1.43-4.65.17-6.84-1.06-1.85-3.21-2.93-5.31-2.32-4.2,1.21-3.65,6.57-3.44,9.9.13,2.07.45,4.22.29,6.3-.05.59-.14,1.28-.54,1.73-.32.37-.24.09-.58.39-.04.03-.32-.08-.2-.01l1.15,1.49c-.95-2.52-1.94-5.4-1.25-8.11.35-1.35,1.16-2.48,1.82-3.69.74-1.36,1.31-2.77,1.48-4.32.31-2.88-1.28-5.77-4.21-6.5-3.17-.79-5.62,1.61-5.96,4.62-.13,1.11,0,2.2.06,3.31.08,1.59.05,3.19-.09,4.78-.26,2.9-1.05,5.67-2.02,8.41-.51,1.45-.69,2.98.18,4.33.72,1.13,2.02,1.75,3.34,1.83,2.65.15,4.79-1.55,5.66-3.96s.32-5.15,2.76-6.84c2.57-1.78,5.97-1.55,8.94-1.45,1.23.04,2.31-.98,2.46-2.17.16-1.32-.6-2.27-1.79-2.74-7.08-2.79-14.15-5.58-21.23-8.37l-.66,4.91c.64-.06.07.01-.05-.14-.21-.26.34.56.28.42.32.69.35,1.28.39,1.97.13,2.45.04,4.91-.24,7.34-.38,3.37-2.85,9.17,1.34,11.24l-.9-3.42c-.3.65-.61,1.29-.91,1.94-.8,1.69.14,3.74,2.16,3.76,5.28.07,10.26-2.75,12.97-7.26,1.66-2.77-2.66-5.28-4.32-2.52-1.83,3.04-5.12,4.83-8.65,4.79l2.16,3.76c.3-.65.61-1.29.91-1.94.54-1.15.4-2.78-.9-3.42-.51-.25-.06.18.09.22s-.1.09-.04-.17c-.05.2,0-.17,0-.23,0-.21,0-.42.03-.62.1-.77.42-1.96.58-2.87.46-2.63.73-5.31.75-7.98.03-3.58-.47-10.33-5.67-9.86-2.88.26-3.31,3.87-.66,4.91,7.08,2.79,14.15,5.58,21.23,8.37l.66-4.91c-3.89-.14-8.09-.1-11.47,2.13-1.56,1.03-2.9,2.4-3.68,4.12s-.67,3.72-1.32,5.52c-.13.36-.06.23-.16.33,0,0-.3.17-.14.1-.18.08-.29-.03-.35.07.12-.19.24.22-.04-.02.21.19.49.23.65.47.22.32-.09.7.22.36.17-.18.22-.62.31-.86.16-.43.31-.86.46-1.29.33-1.01.62-2.03.86-3.07.47-2.06.77-4.18.89-6.3.11-1.99-.13-3.95-.12-5.93,0-.22.05-.5.04-.69-.02-.7.06,0-.06-.19.14.22-.23.05-.22.08.03.13-.21-.63.09.02.02.05.3.18.36.29.62,1.1-.68,3-1.19,3.9-1.05,1.83-1.9,3.62-2.17,5.73s.02,4.19.55,6.2c.27,1,.59,1.99.98,2.96.46,1.17,1.41,1.82,2.62,2.09,1.89.43,3.87-.34,5.24-1.64,3.02-2.89,2.08-7.74,1.84-11.44-.07-1.14-.18-2.29-.21-3.43-.02-.65.04-1.37.17-1.77.01-.05.09-.32.09-.22,0-.19.34-.02-.08-.03.3,0-.37.15-.34.13-.26-.13-.35-.15-.27-.06.02.02.03.03.03.05-.02.03.06.61.05.65-.04.5-.25,1.01-.41,1.48-1.6,4.85-3.36,9.66-5.04,14.49-.34.98.21,2.36,1.15,2.82,3.78,1.89,8.12-.19,9.52-4.08.66-1.85.6-3.98.06-5.85-.5-1.72-1.77-3.36-1.92-5.17-.03-.39.06-.87.16-1.02.28-.45-.1.21-.05-.03.07-.3.37.43.02-.06-.08-.12-.42-.3-.39-.32-.22.14,0,2.82,0,3.13,0,1.13,0,2.26-.01,3.39,0,2.26-.02,4.52-.03,6.78,0,1.33,0,2.57,1.23,3.37,1,.65,2.2.73,3.28.25,2.31-1.01,2.97-3.58,3.76-5.73.9-2.43,1.79-4.86,2.69-7.3l-4.57.6c1.11,2.48.27,6-1.9,7.67-.9.69-1.47,1.66-1.15,2.82.28,1.03,1.32,1.88,2.41,1.84,4.15-.17,6.92-3.69,7.35-7.62.48-4.4-2.43-8.19-5.05-11.39-2.79-3.4-5.71-6.53-9.7-8.52s-8.26-2.89-12.64-3.4c-1.34-.16-2.5,1.26-2.5,2.5,0,1.48,1.15,2.34,2.5,2.5h0Z"/>
      <path class="cls-1" d="m253.87,115.72c-6.44,1.58-12.38,4.68-17.46,8.93-1.04.87-.9,2.64,0,3.54,1.03,1.03,2.5.87,3.54,0,4.34-3.64,9.64-6.27,15.25-7.65,1.31-.32,2.1-1.8,1.75-3.08s-1.76-2.07-3.08-1.75h0Z"/>
      <path class="cls-1" d="m339.29,154.63h-4.98c-.64,0-1.31.28-1.77.73s-.76,1.15-.73,1.77.24,1.32.73,1.77,1.09.73,1.77.73h4.98c.64,0,1.31-.28,1.77-.73s.76-1.15.73-1.77-.24-1.32-.73-1.77-1.09-.73-1.77-.73h0Z"/>
      <path class="cls-1" d="m360.54,138.01c-3.37-1.91-7.15-2.56-10.98-2.74-3.48-.16-7.54-.47-10.85.83-3.78,1.49-5.48,4.95-6.95,8.48s-2.53,7.44-3.08,11.34c-.19,1.34.33,2.69,1.75,3.08,1.17.32,2.89-.4,3.08-1.75.48-3.37,1.3-6.68,2.5-9.87.87-2.3,1.92-5.6,4.41-6.61,1.28-.52,2.72-.54,4.08-.56,1.55-.02,3.1-.02,4.64.04,3.08.12,6.17.54,8.88,2.08s5.33-2.73,2.52-4.32h0Z"/>
      <path class="cls-1" d="m382.64,142.09c-5.37-7.06-15.76-8.41-22.77-2.97-1.07.83-.87,2.66,0,3.54,1.05,1.05,2.47.83,3.54,0-.3.23.13-.08.19-.12.17-.11.34-.22.51-.33.35-.21.71-.39,1.07-.58.39-.2-.06,0,.18-.08.19-.07.38-.14.57-.21.38-.13.78-.24,1.17-.33.36-.08.72-.15,1.08-.21.27-.04-.28,0,.18-.01.2-.01.41-.03.61-.04.41-.02.82-.02,1.23,0,.2,0,.41.02.61.04.06,0,.69.07.4.03-.27-.03.41.07.4.07.16.03.32.06.48.1.4.09.8.19,1.19.31s.78.25,1.15.41c-.32-.13.06.03.18.09.18.09.36.18.54.28.36.19.71.4,1.04.62.14.09.27.18.4.28.6.42-.29-.29.26.21.27.25.55.48.8.75.14.15.28.29.42.45.06.06.49.59.23.26.82,1.07,2.16,1.64,3.42.9,1.06-.62,1.72-2.34.9-3.42h0Z"/>
      <path class="cls-1" d="m400.63,144.62c.96-2.37-.17-5.23-2.06-6.79-2.12-1.76-4.8-2.1-7.45-2.37-4.39-.46-9.35-.38-12.63,3.02-.94.97-.97,2.57,0,3.54s2.59.97,3.54,0c.15-.16.3-.3.46-.45.3-.28-.24.16.09-.08.31-.22.64-.4.97-.57.68-.35-.19.05.21-.09.2-.07.4-.14.6-.2.37-.11.75-.19,1.13-.26.46-.08-.58.04.25-.04.18-.02.35-.03.53-.05.4-.03.81-.04,1.21-.04.86,0,1.72.04,2.57.12,1.52.13,3.14.2,4.4.75.22.1.44.22.65.35.37.23-.27-.33.22.16.12.12.25.24.36.38-.2-.25.07.15.13.24.21.34-.07-.27.06.1.05.15.13.55.09.19.02.16.02.33,0,.49.06-.47-.14.24-.16.29-.51,1.25.55,2.75,1.75,3.08,1.43.39,2.56-.49,3.08-1.75h0Z"/>
      <path class="cls-1" d="m398.41,144.92c7.15-3.99,17.26-.43,20.12,7.42.98,2.69,1.38,5.53,1.69,8.37.36,3.25.69,6.51,1.04,9.76.47,4.43,1.44,10.22-1.5,14.05-3.3,4.29-9.69,3.21-12.02-1.4-1.45-2.87-5.77-.34-4.32,2.52,2.99,5.92,10.26,8.2,16.15,5.32s7.43-9.93,7.09-16.07c-.2-3.62-.7-7.24-1.08-10.85s-.64-7.09-1.48-10.53c-1.41-5.79-4.95-10.71-10.44-13.24s-12.26-2.75-17.77.32c-2.81,1.57-.29,5.89,2.52,4.32h0Z"/>
      <path class="cls-1" d="m403.42,185.19c.43,2.96-.44,6.05-1.57,8.75-.89,2.12-2.03,4.7-4,6.04-2.33,1.58-5.11-.02-7.21-1.25-1.43-.84-2.85-1.71-4.27-2.57-.68-.41-1.37-.82-2.05-1.24-.37-.23-.82-.58-1.23-.74l-.29-.18c-.62-.33-.76.32-.42,1.96l-1.26.34-.17-.02c1.26.48,2.74-.53,3.08-1.75.39-1.4-.48-2.6-1.75-3.08-2.67-1.01-4.93,2.02-4.1,4.45.75,2.18,3.44,3.23,5.25,4.32,3.86,2.33,8.29,5.85,13.06,5.37,4.38-.44,7.2-3.96,9-7.67,2.16-4.45,3.48-9.11,2.75-14.07-.2-1.34-1.89-2.07-3.08-1.75-1.43.39-1.94,1.73-1.75,3.08h0Z"/>
      <path class="cls-1" d="m376.44,192.73c.7,2.45-.05,5.2-1.87,7.17-2.03,2.2-5,3.18-7.87,3.26-.78.02-1.58.01-2.36-.1.25.04-.73-.06-.51-.07-.36-.24-.35-.19.04.15-.14-.27-.18-.32-.12-.15-.35-1.77-.89-3.49-1.14-5.29-.51-3.76-.48-7.66.11-11.41.21-1.33-.34-2.69-1.75-3.08-1.19-.33-2.86.4-3.08,1.75-.6,3.84-.81,7.7-.42,11.57.2,1.97.5,3.94.94,5.87.41,1.8.91,3.55,2.51,4.66,1.43.99,3.45,1.08,5.14,1.1s3.4-.19,5.02-.63c3.28-.89,6.16-2.78,8.17-5.53,2.2-3.01,3.03-7.01,2.01-10.61-.88-3.09-5.7-1.78-4.82,1.33h0Z"/>
      <path class="cls-1" d="m361.69,188.26c3.22,0,3.22-5,0-5s-3.22,5,0,5h0Z"/>
      <path class="cls-1" d="m340.14,155.86c-1.29,9.22-1.85,18.51-1.5,27.82.12,3.31.42,6.96,2.36,9.77,2.3,3.33,6.38,4.5,10.18,3.16,4.47-1.58,7.01-5.44,10.41-8.46,2.41-2.14-1.13-5.67-3.54-3.54-2.83,2.51-5.31,6.77-9.32,7.49-3.4.6-4.54-2.74-4.91-5.51-.61-4.64-.37-9.53-.2-14.19.19-5.09.62-10.17,1.32-15.21.19-1.34-.33-2.69-1.75-3.08-1.17-.32-2.89.4-3.08,1.75h0Z"/>
      <path class="cls-1" d="m88.43,153.52l-6.83-.75c-.6-.07-1.36.33-1.77.73-.43.43-.76,1.15-.73,1.77s.24,1.32.73,1.77l.51.39c.39.23.81.34,1.26.34l6.83.75c.6.07,1.36-.33,1.77-.73.43-.43.76-1.15.73-1.77s-.24-1.32-.73-1.77l-.51-.39c-.39-.23-.81-.34-1.26-.34h0Z"/>
      <path class="cls-1" d="m91.78,153.11c-2.98-6.15-7.23-12.15-13.8-14.77-3.64-1.45-7.71-1.42-11.57-1.31s-8.38,1.83-8.45,6.44c-.05,3.22,4.95,3.22,5,0,.03-2.02,5.17-1.48,6.38-1.48,2.91.01,5.8.28,8.39,1.71,4.61,2.55,7.49,7.32,9.73,11.92.59,1.21,2.32,1.54,3.42.9,1.24-.73,1.49-2.2.9-3.42h0Z"/>
      <path class="cls-1" d="m63.36,142.12c-2.35-4.65-8.74-5.75-13.39-5s-8.73,3.54-10.97,7.55c-1.57,2.81,2.75,5.34,4.32,2.52s4.2-4.51,7.46-5.16c.61-.12.27-.08.9-.13.44-.03.87-.05,1.31-.04s.88.03,1.31.09c-.31-.04.56.12.75.17,1.53.37,3.2.96,3.99,2.53.61,1.2,2.31,1.55,3.42.9,1.22-.72,1.51-2.21.9-3.42h0Z"/>
      <path class="cls-1" d="m43.53,145.27c-1.6-5-6.2-8.44-11.39-8.88-5.49-.46-10.44,3.37-12.21,8.41-.45,1.27.51,2.74,1.75,3.08,1.38.38,2.62-.47,3.08-1.75s1.58-2.77,2.8-3.57c.91-.6,1.41-.81,2.37-1.05.21-.05.41-.09.62-.13.18-.03.17-.03-.04,0l.25-.02c.47-.01.92-.02,1.39.02s-.55-.12.21.02c.21.04.41.08.62.13.45.11.9.25,1.33.42-.31-.12.11.05.22.11.19.09.38.19.57.3.32.18.9.55,1.02.65s.63.55.9.81c.12.12.23.25.35.37,0,0,.47.6.25.29.62.85.87,1.37,1.11,2.12.41,1.29,1.73,2.11,3.08,1.75,1.26-.35,2.16-1.78,1.75-3.08h0Z"/>
      <path class="cls-1" d="m23.11,143.02c-5.12-1.81-11.09-3.4-16.23-.81S.33,150.82.12,156.14c-.26,6.56-.02,13.16,0,19.72.01,5.91.15,13.33,6.33,16.32,2.89,1.4,6.3,1.16,8.63-1.2,2.08-2.11,2.89-5.5,1.19-8.09s-6.09-.17-4.32,2.52c.27.4.35.6.18,1.09s-.53.99-1.02,1.3c-1.19.74-2.85-.13-3.82-1.17-1.45-1.54-1.91-3.72-2.06-5.78-.19-2.64-.09-5.3-.1-7.94-.01-5.34-.14-10.7-.01-16.04.08-3.4.38-7.82,3.52-9.9,3.83-2.54,9.28-.51,13.16.86,1.27.45,2.74-.51,3.08-1.75.38-1.38-.47-2.62-1.75-3.08h0Z"/>
      <path class="cls-1" d="m11.85,183.98c1.36,4.09,3.06,8.08,5.13,11.87,1.9,3.49,4.05,7.41,7.21,9.92s7.81,3.28,11.06.5c1.66-1.42,2.29-3.58,2.95-5.59.74-2.25,1.48-4.51,2.22-6.76,1.01-3.06-3.82-4.38-4.82-1.33-.64,1.95-1.28,3.91-1.93,5.86-.4,1.22-.68,3.18-1.71,4.07-1.89,1.62-4.59-.37-5.9-1.84-2.19-2.45-3.84-5.57-5.36-8.47-1.6-3.07-2.93-6.26-4.03-9.55-1.01-3.04-5.84-1.74-4.82,1.33h0Z"/>
      <path class="cls-1" d="m36.42,194.87c2.61,3.22,5.09,6.67,7.96,9.67,2.61,2.73,6.19,4.49,10,3.39,3.57-1.03,6.32-4,7.61-7.41,1.47-3.88,1.1-8.14.67-12.17-.15-1.34-1.05-2.5-2.5-2.5-1.24,0-2.65,1.15-2.5,2.5.35,3.21.77,6.59-.12,9.74-.66,2.31-2.39,4.55-4.79,5.1-.98.22-2.01,0-3.02-.62-1.17-.72-2.09-1.82-2.97-2.86-2.31-2.76-4.54-5.59-6.81-8.38-.85-1.05-2.65-.89-3.54,0-1.04,1.04-.85,2.48,0,3.54h0Z"/>
      <path class="cls-1" d="m60.47,190.43c3.39.51,7.1.86,10.23-.85,3.93-2.15,4.14-6.6,4.63-10.55.57-4.55,1.15-9.09,1.72-13.64.24-1.92.36-3.92.81-5.81.14-.59.3-1.16.6-1.67.34-.57.26-.49.9-.59,1.33-.22,2.08-1.87,1.75-3.08-.39-1.41-1.74-1.97-3.08-1.75-3.47.58-4.85,4.29-5.28,7.35-.62,4.44-1.13,8.89-1.69,13.33-.27,2.11-.53,4.22-.8,6.33-.19,1.52-.15,3.69-1.13,4.96-1.51,1.97-5.17,1.46-7.34,1.13-1.33-.2-2.69.33-3.08,1.75-.32,1.18.4,2.87,1.75,3.08h0Z"/>
    </g>
  </g>
</svg>