<?xml version="1.0" encoding="UTF-8"?>
<svg id="Layer_2" data-name="Layer 2" xmlns="http://www.w3.org/2000/svg" viewBox="0 0 280.74 279.98">
  <defs>
    <style>
      .cls-1 {
        fill: #f6713b;
      }
    </style>
  </defs>
  <g id="Lag_1" data-name="Lag 1">
    <g>
      <path class="cls-1" d="m103.95,44.23c-7.9,19.43-10.31,40.85-7.33,61.58.84,5.88,2.15,11.67,3.89,17.35.94,3.07,5.77,1.76,4.82-1.33-5.93-19.31-6.58-40.12-1.87-59.77,1.35-5.63,3.13-11.14,5.31-16.5.51-1.25-.55-2.75-1.75-3.08-1.43-.39-2.56.49-3.08,1.75h0Z"/>
      <path class="cls-1" d="m189.85,51.02c5,16.74,5.97,34.59,2.68,51.76-.25,1.32.37,2.7,1.75,3.08,1.22.34,2.82-.41,3.08-1.75,3.46-18.05,2.58-36.79-2.68-54.41-.92-3.08-5.75-1.77-4.82,1.33h0Z"/>
      <path class="cls-1" d="m147.67,61.24c-.49,4.02-.76,8.51,1.59,12.04,1.22,1.83,2.95,3.07,4.69,4.36,1.51,1.12,2.66,2.4,3.51,4.08s1.37,3.58,1.88,5.42c.42,1.55.95,3.25.72,4.87-.44,3.12-5.6,3.28-7.98,3.06-3.53-.32-7.16-2.14-9.31-4.99-.81-1.08-2.16-1.64-3.42-.9-1.06.62-1.72,2.34-.9,3.42,2.62,3.47,6.26,5.97,10.52,6.98s9.07.77,12.68-1.57c4.43-2.87,3.62-8.23,2.41-12.6-.61-2.19-1.3-4.38-2.37-6.4-1.15-2.19-2.78-3.86-4.74-5.34-1.84-1.39-3.67-2.61-4.3-4.96s-.28-5.04.01-7.48c.16-1.34-1.27-2.5-2.5-2.5-1.49,0-2.34,1.15-2.5,2.5h0Z"/>
      <path class="cls-1" d="m127.01,99.76c8.3,8.38,19.3,14.01,30.99,15.7,1.33.19,2.69-.33,3.08-1.75.32-1.17-.4-2.88-1.75-3.08-10.89-1.57-21.03-6.59-28.78-14.41-2.27-2.29-5.8,1.25-3.54,3.54h0Z"/>
      <path class="cls-1" d="m126.66,52.7c-6.21-.85-12.82.37-16.59,5.85-3.45,5.03-1.87,12.13,3.63,14.89s12.64,3.53,18.81,2.35c5.6-1.07,10.51-5.13,9.77-11.3-.87-7.24-7.54-10.91-14.05-12.22-1.32-.27-2.7.38-3.08,1.75-.34,1.23.42,2.81,1.75,3.08,3.74.75,8.22,2.15,9.9,5.95.66,1.5.86,3.38.01,4.85s-2.57,2.28-4.19,2.74c-4.47,1.26-9.51.81-13.9-.56-1.69-.53-3.71-1.18-4.73-2.73-.97-1.47-1.01-3.45-.33-5.05,1.87-4.38,7.47-5.35,11.66-4.78,1.34.18,2.68-.32,3.08-1.75.32-1.17-.4-2.89-1.75-3.08h0Z"/>
      <path class="cls-1" d="m127.1,72c.05-.21.16-.42.2-.63-.09.5-.12.29,0,.08.05-.09.11-.19.17-.28.04-.06.27-.37.04-.08s.01,0,.07-.06c.17-.18.35-.35.53-.52.25-.23,0,.05-.11.08.09-.02.2-.14.28-.19.21-.14.43-.27.66-.39.1-.05.2-.1.3-.15.07-.03.43-.19.09-.05s.03,0,.1-.03c.13-.05.27-.09.4-.14.51-.16,1.04-.27,1.56-.36.06-.01.66-.1.32-.05-.3.04.16-.02.22-.02.29-.03.59-.06.88-.09,1.43-.14,2.87-.26,4.28-.53,1.1-.21,1.8-1.37,1.84-2.41.02-.43.03-.86.05-1.28.03-.99-.66-1.91-1.54-2.28-.96-.4-1.96-.16-2.73.52-.2.17-.15.14.16-.11-.08.06-.16.11-.25.16-.08.05-.17.1-.26.14-.24.11-.18.09.19-.08-.25-.02-.75.23-1.01.28-.1.02-.2.04-.3.05-.27.04-.2.03.2-.03-.18-.03-.44.05-.63.06-.37.03-.74.06-1.11.09-2.05.18-3.99.56-5.54,2.02-.73.69-.89,1.84-.52,2.73.41.97,1.26,1.45,2.28,1.54,1.7.14,3.27-.69,4.65-1.58.57-.37,1.14-.73,1.75-1.04.44-.22-.56.17-.09.05.14-.04.38-.06.51-.13-.16.09-.63.09-.14.04.4-.04-.65-.16,0,0,1.27.32,2.77-.41,3.08-1.75s-.39-2.74-1.75-3.08c-1.9-.47-3.66.16-5.25,1.18-.58.37-1.15.77-1.76,1.09-.08.05-.17.09-.26.13-.24.11-.17.08.21-.08-.13.02-.26.1-.39.13-.09.03-.18.05-.27.07-.26.05-.18.04.26-.03-.16-.04-.39,0-.55,0l1.77,4.27c.07-.07.15-.14.22-.2-.31.24-.36.28-.15.13.15-.08.38-.17.52-.27-.37.15-.44.18-.19.09.07-.02.14-.05.21-.07.17-.05.34-.09.51-.13.23-.05.83-.02.1-.03.2,0,.42-.05.63-.07.37-.03.74-.06,1.11-.09,2.08-.17,3.98-.54,5.59-1.97l-4.27-1.77c-.02.43-.03.86-.05,1.28l1.84-2.41c-.18.03-.36.07-.54.1-.11.02-.63.09-.1.02-.33.04-.66.08-.99.11-.7.07-1.4.12-2.09.2-1.41.16-2.85.34-4.18.86-2.56,1.01-4.87,2.83-5.56,5.61-.31,1.27.41,2.77,1.75,3.08s2.74-.39,3.08-1.75h0Z"/>
      <path class="cls-1" d="m136.75,66.65c-2.98.34-5.88,1-8.65,2.14-.63.26-1.14.54-1.49,1.15-.31.54-.45,1.33-.25,1.93s.57,1.19,1.15,1.49,1.32.5,1.93.25c2.33-.95,4.76-1.61,7.26-1.96l-.66.09c.24-.03.49-.06.73-.09.68-.08,1.26-.23,1.77-.73.43-.43.76-1.15.73-1.77s-.24-1.32-.73-1.77c-.46-.42-1.12-.81-1.77-.73h0Z"/>
      <path class="cls-1" d="m177.95,55.57c-2.9-.33-5.81-.48-8.72-.42-1.31.03-2.75,0-4.03.35s-2.28,1.27-3.15,2.25c-1.66,1.87-3.35,3.95-3.78,6.49s.21,5.55,1.58,7.69c2.9,4.56,8.91,5.28,13.84,5.31,2.64.02,5.41.09,7.82-1.16,2.01-1.05,3.39-3.02,4.09-5.14,1.77-5.36-1.45-10.6-5.46-13.94-1.04-.86-2.52-1.02-3.54,0-.89.89-1.04,2.67,0,3.54,2.37,1.98,4.72,4.66,4.47,7.78-.08,1.06-.6,2.35-1.47,3.07-1.16.96-3.05.85-4.52.86-3.3.02-7.65.23-10.29-2.14-1.12-1-1.62-2.78-1.65-4.25-.04-1.63,1.07-2.99,2.09-4.16.47-.54.92-1.28,1.63-1.45.98-.24,2.25-.1,3.26-.1,2.62-.02,5.23.14,7.82.43,1.34.15,2.5-1.26,2.5-2.5,0-1.48-1.15-2.34-2.5-2.5h0Z"/>
      <path class="cls-1" d="m182.11,67.45c-4.17.52-8.33,1.17-12.45,1.98l2.82,3.67s.32-.56.36-.54c-.23.29-.26.34-.09.13.07-.08.14-.16.21-.24.15-.15.3-.3.46-.44.08-.07.16-.14.24-.2-.3.23-.34.26-.13.11.36-.23.72-.46,1.1-.65.1-.05.19-.1.29-.14.25-.11.2-.09-.15.06.06-.09.43-.17.54-.21.82-.3,1.67-.51,2.53-.68.45-.09.89-.17,1.34-.24.06,0,.65-.13.67-.1-.39.05-.44.06-.17.02.11-.01.22-.03.33-.04,1.29-.16,2.57-1.03,2.5-2.5-.05-1.21-1.11-2.68-2.5-2.5-4.45.56-9.34,1.5-11.86,5.64-.52.86-.4,2,.2,2.78.64.83,1.62,1.09,2.63.9,1.92-.38,3.84-.72,5.76-1.03.94-.15,1.89-.3,2.84-.43.45-.07.91-.13,1.36-.19-.54.07.13-.02.25-.03.3-.04.61-.08.91-.12,1.29-.16,2.57-1.03,2.5-2.5-.05-1.21-1.11-2.67-2.5-2.5h0Z"/>
      <path class="cls-1" d="m103.56,45.49c13.68,2.2,27.45,3.74,41.28,4.61,3.21.2,3.2-4.8,0-5-13.38-.84-26.71-2.31-39.95-4.43-1.33-.21-2.69.34-3.08,1.75-.33,1.19.41,2.86,1.75,3.08h0Z"/>
      <path class="cls-1" d="m145.14,49.87c17.16,1.76,34.38,2.78,51.63,3.08,3.22.05,3.22-4.95,0-5-17.25-.29-34.47-1.32-51.63-3.08-1.35-.14-2.5,1.25-2.5,2.5,0,1.47,1.15,2.36,2.5,2.5h0Z"/>
      <path class="cls-1" d="m103.22,39.67c-5.29.44-10.53-1.36-14.22-5.23-1.63-1.72-2.93-3.81-3.72-6.04-.56-1.59-1.88-5.11-.29-6.43,1.87-1.57,4.67-2.25,7.05-2.29,2.87-.05,5.35,1,7.91,2.19,2.72,1.27,5.58,2.49,8.65,2.38,3.33-.13,5.52-1.9,8.04-3.85,5.15-3.97,10.91-7.25,16.96-9.65,1.25-.5,2.13-1.67,1.75-3.08-.33-1.19-1.81-2.25-3.08-1.75-6.13,2.43-11.94,5.54-17.24,9.47-2.38,1.76-4.48,4.2-7.69,3.81s-6.17-2.47-9.23-3.55-6.44-1.23-9.63-.57c-2.9.6-6.55,2.08-8.17,4.72s-.94,6.49-.03,9.37,2.37,5.47,4.28,7.78c4.47,5.42,11.7,8.3,18.67,7.73,1.35-.11,2.5-1.07,2.5-2.5,0-1.27-1.15-2.61-2.5-2.5h0Z"/>
      <path class="cls-1" d="m134.26,10.29c7.73-4.56,17.26-5.72,26.1-5.15,2.2.14,4.33.61,6.28,1.67,2.09,1.13,4.06,2.55,6,3.92,3.91,2.76,6.8,6.31,9.89,9.9,3.29,3.83,7.19,7.41,12.22,8.65,3.12.77,4.46-4.05,1.33-4.82-4.35-1.07-7.49-4.4-10.3-7.7-1.6-1.88-3.14-3.82-4.86-5.59s-3.72-3.33-5.75-4.77-4.15-2.97-6.39-4.12-4.74-1.79-7.32-2.06c-4.78-.5-9.74-.14-14.48.55-5.35.78-10.58,2.44-15.25,5.19-2.77,1.63-.26,5.96,2.52,4.32h0Z"/>
      <path class="cls-1" d="m197.03,52.92c5.95.56,12.07-.18,17.69-2.24,5.19-1.9,10.08-4.92,12.02-10.37.95-2.65,1.03-5.59,1.01-8.37-.01-1.36,0-2.77-.48-4.06-.52-1.38-1.48-2.54-2.55-3.53-3.54-3.31-8.35-4.9-13.15-4.92-2.7,0-5.47.46-7.99,1.43-1.42.55-2.76,1.23-4.1,1.95-1.2.64-2.46,1.34-3.84,1.46s-2.5,1.06-2.5,2.5c0,1.26,1.15,2.62,2.5,2.5,2.62-.23,4.82-1.33,7.11-2.55,1.78-.94,3.6-1.64,5.58-2.01,3.57-.68,7.53-.22,10.7,1.61,1.31.76,3.34,2.06,3.65,3.66.21,1.1.08,2.38.06,3.49s-.06,2.31-.27,3.45c-.43,2.27-1.39,4.11-3.12,5.65-1.52,1.35-3.43,2.32-5.32,3.05-5.44,2.11-11.2,2.85-17,2.3-1.35-.13-2.5,1.24-2.5,2.5,0,1.46,1.15,2.37,2.5,2.5h0Z"/>
      <path class="cls-1" d="m190.33,119.84c-4.02-3.7-9.56-5.66-15.02-5.17-5.73.51-10.63,3.42-14.09,7.98-7.66,10.11-5.31,23.59.22,34.08.84,1.59,1.76,3.13,3.38,4.03s3.46,1.1,5.18,1.49c3.81.86,7.63,1.71,11.44,2.57,3.13.7,4.47-4.12,1.33-4.82-2.94-.66-5.88-1.32-8.82-1.98-1.43-.32-2.86-.64-4.29-.96-.9-.2-2.2-.29-2.86-1.02-.82-.91-1.34-2.36-1.87-3.45-.6-1.24-1.14-2.5-1.61-3.79-.92-2.53-1.65-5.19-1.92-7.87-.85-8.6,2.97-18.82,12.23-20.98,4.58-1.07,9.69.23,13.15,3.42,2.36,2.18,5.91-1.35,3.54-3.54h0Z"/>
      <path class="cls-1" d="m183.14,116.08c3.68-2.34,7.46-4.5,11.29-6.59s7.39-4.11,11.21-5.87c3.55-1.64,7.18-2.17,11.07-1.88s7.37,1.16,11.05,1.77c4.45.73,8.9,1.1,13.34.09,3.14-.72,1.81-5.54-1.33-4.82-7.57,1.73-15.32-1.41-22.85-2.02-4.01-.32-8,.14-11.74,1.66-4,1.62-7.79,3.81-11.59,5.86-4.4,2.36-8.75,4.81-12.96,7.49-2.71,1.72-.2,6.05,2.52,4.32h0Z"/>
      <path class="cls-1" d="m241.79,103.76c3.36-1.69,6.92-2.89,10.61-3.61,3.42-.67,7.04-.93,9.99,1.24,2.52,1.86,4.7,4.84,5.79,7.77.58,1.57.95,3.26.79,4.94-.15,1.58-1.31,2.21-2.07,3.51-.87,1.5-1.07,3.21-1.27,4.91-.09.75-.14,1.11-.31,1.87-.1.43-.3.76-.43.85-2.65,1.8-.15,6.13,2.52,4.32,1.51-1.03,2.44-2.47,2.83-4.26.35-1.63.26-3.19.75-4.68.16-.49.66-1.01,1.11-1.53.74-.88,1.29-1.86,1.57-2.99.54-2.18.35-4.56-.19-6.71-1.02-4.05-3.56-7.9-6.6-10.73-3.5-3.24-7.8-4.41-12.5-3.86-5.28.61-10.37,2.25-15.11,4.63-2.88,1.44-.35,5.76,2.52,4.32h0Z"/>
      <path class="cls-1" d="m263.35,128.72c.83,4.76,1.78,10.28-.21,14.89-1.86,4.31-6.26,6.36-10.72,6.79-2.36.23-4.76.16-7.11-.18-3.2-.46-6.42-1.29-9.67-1.03-2.7.22-5.27,1.09-7.36,2.84-.94.78-1.75,1.77-2.28,2.88-.75,1.56-.82,3.17-1.1,4.85-.36,2.16-2.13,4.05-4.46,3.91-2.16-.13-3.86-2.11-3.9-4.22-.07-3.21-5.07-3.22-5,0,.14,6.67,7.08,11.12,13.13,8.24,2.81-1.33,4.67-4.02,5.13-7.06.21-1.39.17-2.91,1.03-4.09.64-.87,1.64-1.47,2.63-1.85,3.01-1.14,6.37-.34,9.43.17s5.86.79,8.82.59c5.83-.4,11.58-2.59,14.86-7.68,3.88-6.02,2.77-13.74,1.61-20.39-.23-1.33-1.86-2.08-3.08-1.75-1.41.39-1.98,1.74-1.75,3.08h0Z"/>
      <path class="cls-1" d="m213.98,156.45c-4.13.28-6.84,3.15-9.46,6.04-3.1,3.43-6.2,6.86-9.3,10.29-1.5,1.65-2.99,3.31-4.49,4.96-1.19,1.32-2.33,2.8-4.24,2.89-3.09.14-5.95-1.99-7.55-4.49-2.29-3.56-2.54-8.06-1.94-12.15.19-1.33-.33-2.69-1.75-3.08-1.18-.32-2.88.4-3.08,1.75-.66,4.56-.64,9.22,1.18,13.52,1.6,3.79,4.53,6.96,8.37,8.53,1.99.81,4.17,1.12,6.3.75,2.31-.4,4.09-1.83,5.63-3.51,3.39-3.69,6.72-7.43,10.08-11.15,1.85-2.04,3.67-4.1,5.54-6.12,1.22-1.33,2.77-3.1,4.7-3.24,1.35-.09,2.5-1.08,2.5-2.5,0-1.28-1.15-2.59-2.5-2.5h0Z"/>
      <path class="cls-1" d="m104.08,125.66h5.98c.64,0,1.31-.28,1.77-.73s.76-1.15.73-1.77c-.06-1.35-1.1-2.5-2.5-2.5h-5.98c-.64,0-1.31.28-1.77.73s-.76,1.15-.73,1.77c.06,1.35,1.1,2.5,2.5,2.5h0Z"/>
      <path class="cls-1" d="m135.96,127.24c7.44-.19,14.88.2,22.26,1.18,1.34.18,2.5-1.28,2.5-2.5,0-1.5-1.16-2.32-2.5-2.5-7.38-.97-14.82-1.37-22.26-1.18-3.21.08-3.22,5.08,0,5h0Z"/>
      <path class="cls-1" d="m103.59,120.84c-28.04-2.11-53.81,12.96-72.66,32.56-4.58,4.77-9.1,10.41-15.49,12.79-1.26.47-2.13,1.69-1.75,3.08.33,1.21,1.8,2.22,3.08,1.75,5.99-2.24,10.58-6.58,14.92-11.14,4.49-4.73,9.08-9.32,14.11-13.46,10.17-8.37,21.89-14.99,34.66-18.37,7.55-2,15.34-2.78,23.13-2.2,1.35.1,2.5-1.22,2.5-2.5,0-1.44-1.15-2.4-2.5-2.5h0Z"/>
      <path class="cls-1" d="m15.92,166.63c-5.75-.54-9.76,4.8-11.91,9.42-2.37,5.1-3.7,10.59-3.96,16.21s.59,11.38,2.55,16.66,4.7,10.59,9.54,13.51c5.51,3.32,12.3,2.7,18.39,1.88,1.34-.18,2.5-1.02,2.5-2.5,0-1.21-1.15-2.68-2.5-2.5-4.59.62-9.54,1.29-14.01-.3s-6.88-6.09-8.59-10.13c-3.69-8.73-3.86-18.81-.66-27.71,1.3-3.61,3.9-9.99,8.66-9.55,1.35.13,2.5-1.24,2.5-2.5,0-1.46-1.15-2.37-2.5-2.5h0Z"/>
      <path class="cls-1" d="m30.6,224.22c17.58-.04,35.14-2.28,52.18-6.64,3.12-.8,1.79-5.62-1.33-4.82-16.62,4.25-33.69,6.42-50.85,6.46-3.22,0-3.22,5.01,0,5h0Z"/>
      <path class="cls-1" d="m86.7,151.35c-5.95,15.51-8.84,32.22-8.45,48.83.11,4.75.21,9.76,1.56,14.34.91,3.08,5.73,1.77,4.82-1.33-1.12-3.81-1.22-7.91-1.35-11.86s-.07-8.01.18-12.01c.51-8,1.81-15.94,3.86-23.69,1.16-4.39,2.57-8.72,4.2-12.96.48-1.26-.53-2.74-1.75-3.08-1.41-.39-2.59.48-3.08,1.75h0Z"/>
      <path class="cls-1" d="m10.74,172.53c20.56-3.09,40.98-7.13,61.16-12.13,5.68-1.41,11.33-2.89,16.97-4.44,3.1-.85,1.78-5.68-1.33-4.82-20.05,5.52-40.35,10.12-60.82,13.74-5.76,1.02-11.53,1.96-17.31,2.83-1.34.2-2.07,1.89-1.75,3.08.39,1.43,1.73,1.95,3.08,1.75h0Z"/>
      <path class="cls-1" d="m91.99,154.59c8.89-8.51,17.68-17.58,23.32-28.65,2.2-4.33,4.22-10.57,9.64-11.66,1.94-.39,3.87.2,4.74,2.09,1.08,2.34.7,5.35.53,7.84-.5,7.42-2.15,14.71-4.73,21.67-.47,1.27.53,2.74,1.75,3.08,1.4.38,2.6-.48,3.08-1.75,2.58-6.95,4.18-14.22,4.81-21.6.5-5.88.73-13.78-6.14-16.01-2.93-.95-6.31-.24-8.92,1.26s-4.71,4.21-6.23,6.91-2.79,5.73-4.38,8.49-3.5,5.6-5.51,8.2c-4.63,6-10.03,11.36-15.49,16.59-2.33,2.23,1.21,5.76,3.54,3.54h0Z"/>
      <path class="cls-1" d="m111.56,152.51l12.15-1.28c3.97-.42,8.02-1.07,12.02-.69,3.02.28,6.15,1.44,8.33,3.59,1.82,1.81,3.46,5.02,2.52,7.63l.64-1.1-.21.17,1.1-.64c.26-.08-.31.07-.37.07-.39.05-.78.07-1.17.11-.7.07-1.4.16-2.11.25-1.47.19-2.93.41-4.39.67-2.78.51-5.53,1.17-8.24,1.97-3.08.91-1.77,5.74,1.33,4.82,4.45-1.32,9.02-2.28,13.64-2.74,1.05-.11,2.29-.04,3.23-.59,1.27-.74,1.57-2.11,1.7-3.47.19-1.98-.18-4-.93-5.83-1.67-4.08-5.01-6.95-9.05-8.56-4.37-1.73-9.06-1.6-13.66-1.13-5.51.56-11.02,1.16-16.54,1.74-1.34.14-2.5,1.05-2.5,2.5,0,1.24,1.15,2.64,2.5,2.5h0Z"/>
      <path class="cls-1" d="m146.58,167.28c1.44.33,2.83.78,4.14,1.45,1.05.54,1.69.89,1.89,2.06.28,1.59.37,3.23.56,4.83.06.54.24,1.23.14,1.75-.07.35-.39.45-.79.68-2.47,1.41-5.15,2.81-8.04,3-3.24.22-6.48-.2-9.65.7s-1.78,5.71,1.33,4.82c3.6-1.03,7.46-.11,11.13-.9,1.87-.4,3.67-1.21,5.38-2.06s3.61-1.69,4.73-3.3c1.22-1.76.87-3.84.64-5.82-.21-1.86-.24-3.9-.76-5.7-1.14-3.87-5.81-5.53-9.36-6.34-1.32-.3-2.71.4-3.08,1.75-.35,1.26.42,2.77,1.75,3.08h0Z"/>
      <path class="cls-1" d="m149.41,185.55c1.29,1.47,2.31,3.75,2.42,5.59.13,2.14-.36,3.8-2.12,5.25s-4.25,1.95-6.64,2.13c-3.13.24-6.29.23-9.43.32-1.35.04-2.5,1.12-2.5,2.5s1.14,2.54,2.5,2.5c3.6-.11,7.26-.03,10.84-.46s6.94-1.49,9.41-4.06c4.74-4.92,3.23-12.58-.94-17.31-.89-1.01-2.62-.91-3.54,0-1.01,1.01-.89,2.52,0,3.54h0Z"/>
      <path class="cls-1" d="m83.06,214.49c5.85-.25,11.2,2.53,16.56,4.47,5.84,2.11,11.92,3.44,18.09,4.1s12.21.75,18.12-.38c5.46-1.05,10.76-4.09,12.92-9.44s-.37-11.96-6.05-13.68c-3.09-.93-4.41,3.89-1.33,4.82,3.52,1.06,3.78,5.54,2.14,8.23-2.42,3.95-7.37,5.22-11.68,5.62-10.65.98-21.51-.61-31.52-4.33-5.59-2.08-11.13-4.67-17.25-4.41-3.21.14-3.22,5.14,0,5h0Z"/>
      <path class="cls-1" d="m85.02,215.12c.25,20.82.5,41.63.75,62.45.04,3.22,5.04,3.22,5,0-.25-20.82-.5-41.63-.75-62.45-.04-3.22-5.04-3.22-5,0h0Z"/>
      <path class="cls-1" d="m204.96,241.83c-.45,10.48-.21,20.97.71,31.41.12,1.34,1.06,2.5,2.5,2.5,1.26,0,2.62-1.15,2.5-2.5-.92-10.44-1.16-20.94-.71-31.41.14-3.22-4.86-3.21-5,0h0Z"/>
      <path class="cls-1" d="m166.59,161.77c.91,8.54,1.82,17.08,2.73,25.63.92,8.65,1.86,17.31,2.26,26.01.23,4.88.27,9.77.07,14.65-.13,3.22,4.87,3.21,5,0,.72-17.3-1.69-34.58-3.51-51.75-.52-4.85-1.03-9.69-1.55-14.54-.14-1.34-1.05-2.5-2.5-2.5-1.24,0-2.64,1.15-2.5,2.5h0Z"/>
      <path class="cls-1" d="m242.64,155.86c2.26,18.43,2.94,37.04,1.98,55.58-.27,5.31-.69,10.61-1.22,15.9-.14,1.35,1.25,2.5,2.5,2.5,1.47,0,2.36-1.15,2.5-2.5,1.87-18.47,2.16-37.09.8-55.61-.39-5.3-.91-10.59-1.56-15.87-.16-1.34-1.03-2.5-2.5-2.5-1.22,0-2.67,1.15-2.5,2.5h0Z"/>
      <path class="cls-1" d="m173.18,230.54c16.94,11.2,39.29,15.27,58.89,9.4,5.59-1.67,10.79-4.27,15.34-7.92,1.05-.85.88-2.65,0-3.54-1.04-1.04-2.48-.85-3.54,0-7.25,5.81-16.81,8.29-25.94,8.91-9.47.64-18.97-.73-27.9-3.93-5.06-1.82-9.86-4.28-14.34-7.24-2.69-1.78-5.2,2.55-2.52,4.32h0Z"/>
      <path class="cls-1" d="m268.71,136.51c4.98,3.88,7.81,10.3,6.89,16.59-.06.39-.14,1.24-.34,1.56.24-.38.35-.11-.17-.17-.43-.05-.95.08-1.38.12-1.75.13-3.51.22-5.26.17-3.02-.09-6.26-.65-8.65-2.63-1.04-.86-2.52-1.02-3.54,0-.89.89-1.05,2.67,0,3.54,5.4,4.47,12.54,4.44,19.18,3.78,2.27-.23,3.91-1.2,4.64-3.45.5-1.53.63-3.27.67-4.87.07-3.31-.66-6.59-1.97-9.62-1.43-3.32-3.67-6.31-6.52-8.54-1.06-.83-2.5-1.04-3.54,0-.86.86-1.07,2.7,0,3.54h0Z"/>
      <path class="cls-1" d="m272.8,159.25c.49,1.87,1.1,3.75,1.45,5.66.18.96.3,2.3-.15,2.92-.1.14-.57.35-1.05.43-.82.14-1.67.16-2.49.23-2.1.18-4.19.37-6.29.54-1.4.11-2.99.31-4.34-.2s-1.74-1.83-2.3-3c-.78-1.64-1.71-3.27-2.31-4.97-.23-.65-.54-1.51-.23-2.19.06-.13.45-.28.24-.33,3.13.73,4.47-4.09,1.33-4.82-2.14-.5-4.15.33-5.46,2.06s-1.46,3.94-.89,6,1.7,4.03,2.62,5.97c.82,1.72,1.57,3.49,3.09,4.72,3.18,2.56,7.48,1.83,11.24,1.5,2.19-.19,4.4-.3,6.57-.61,1.93-.28,3.66-1.2,4.66-2.93,2.13-3.7.12-8.57-.87-12.31-.82-3.11-5.64-1.79-4.82,1.33h0Z"/>
      <path class="cls-1" d="m272.22,172.45c-.38,1.99-.25,3.88.12,5.86.3,1.6.81,3.18.88,4.82.05,1.13,0,2.4-.75,3.28s-2.11,1.09-3.18,1.23c-4.7.61-12.2,1.25-13.81-4.52-.47-1.69-.38-3.48.01-5.18.21-.93.49-1.84.81-2.74.14-.39.32-.77.46-1.15.03-.08.16-.23.2-.29-.05.08-.7.22-.07.13h-1.33l-.06-.09c1.23.55,2.69.35,3.42-.9.63-1.07.34-2.86-.9-3.42-5.48-2.47-7.33,5.83-7.76,9.61-.5,4.47,1.06,9.05,4.87,11.63,3.24,2.2,7.5,2.39,11.28,2.16,4.04-.24,8.88-.62,10.87-4.77,1.08-2.26,1.09-4.74.71-7.16s-1.4-4.78-.94-7.17c.25-1.32-.37-2.7-1.75-3.08-1.22-.34-2.82.41-3.08,1.75h0Z"/>
      <path class="cls-1" d="m269.98,191.5c.54,1.78.98,3.59,1.22,5.43.18,1.38.44,3.07-.07,4.21.11-.24-.32.21-.09.07s-.3.15-.36.17c-.74.27-1.58.4-2.36.53-1.68.27-3.43.29-5.13.15s-3.26-.51-4.83-1.02c-1.17-.39-2.49-.86-3.35-1.78-.32-.35-.46-.57-.49-1.17-.03-.8.29-1.64.53-2.39.2-.63.35-1.1.64-1.61.04-.07.42-.59.28-.43.23-.21.27-.26.13-.14.26-.16.32-.19.17-.08,1.28-.41,2.11-1.73,1.75-3.08-.35-1.26-1.79-2.16-3.08-1.75-3.45,1.11-4.88,5.07-5.31,8.37-.55,4.14,2.3,6.84,5.85,8.29s7.16,2.01,10.81,1.84,8.12-.65,9.6-4.5c.66-1.73.53-3.66.32-5.46-.27-2.37-.72-4.69-1.42-6.97-.93-3.07-5.76-1.76-4.82,1.33h0Z"/>
      <path class="cls-1" d="m256.29,203.75c-.47.24-.96.47-1.45.68l.6-.25c-1.64.69-3.36,1.16-5.13,1.4l.66-.09c-.26.03-.53.06-.79.09-.68.07-1.27.23-1.77.73-.43.43-.76,1.15-.73,1.77s.24,1.32.73,1.77c.46.42,1.12.8,1.77.73,3.04-.29,5.91-1.11,8.63-2.51,1.16-.6,1.6-2.33.9-3.42-.77-1.19-2.17-1.54-3.42-.9h0Z"/>
      <path class="cls-1" d="m263.99,208.05c0,.09-.03.42,0,.15-.03.22-.08.45-.13.67-.09.35-.19.7-.32,1.04-.02.06-.22.46-.4.76-.16.28-.48.76-.57.89-.88,1.14-2.1,2.04-3.46,2.76-2.91,1.54-6.67,2.28-10.11,2.49-1.35.08-2.5,1.09-2.5,2.5,0,1.29,1.15,2.58,2.5,2.5,8.28-.51,19.34-3.88,19.99-13.76.09-1.35-1.21-2.5-2.5-2.5-1.43,0-2.41,1.15-2.5,2.5h0Z"/>
      <path class="cls-1" d="m179.9,185.14c0,5.98-.13,11.98.03,17.96.08,2.99.74,5.76,1.88,8.52.99,2.42,1.96,4.96,3.64,7s4.6,3.44,7.31,2.77c2.48-.61,4.22-2.72,4.92-5.1.83-2.8.13-5.76.06-8.61s.13-5.78.42-8.65c.65-6.62,1.54-13.13.57-19.77-.2-1.34-1.89-2.07-3.08-1.75-1.43.39-1.94,1.73-1.75,3.08,1.44,9.87-1.87,19.75-1.02,29.66.15,1.75.68,4.22-.54,5.74-.96,1.19-2.44.23-3.21-.71-1.32-1.61-2.1-3.9-2.84-5.82-.87-2.24-1.33-4.41-1.37-6.81-.1-5.83-.02-11.67-.02-17.5,0-3.22-5-3.22-5,0h0Z"/>
      <path class="cls-1" d="m204.36,165.69c-.32,7.99-.38,15.99-.18,23.98.1,4.04.27,8.07.51,12.11.21,3.57.33,7.31,1.61,10.7,1.16,3.08,3.21,5.94,6.21,7.45s7.81,1.89,9.25-1.97c.59-1.59.6-3.44.79-5.11.24-2.12.45-4.25.63-6.38.33-3.93.57-7.87.7-11.82.3-8.88.07-17.76-.65-26.61-.11-1.35-1.07-2.5-2.5-2.5-1.27,0-2.61,1.15-2.5,2.5,1.17,14.26,1.03,28.62-.46,42.85-.17,1.59-.26,3.24-.56,4.81-.03.15-.33.78-.04.44.23-.28.25,0-.23-.1-.62-.13-1.21-.12-1.83-.39-2.24-1-3.64-3.26-4.33-5.53-.91-3.01-.97-6.21-1.14-9.33-.2-3.62-.35-7.25-.44-10.87-.21-8.08-.15-16.16.17-24.23.13-3.22-4.87-3.21-5,0h0Z"/>
      <path class="cls-1" d="m228.33,155.56c.14,10.19.28,20.39.42,30.58.07,4.93-.02,9.9.32,14.82.31,4.45,1.11,8.95,3.31,12.89s5.73,7.18,10.15,8.4c3.11.86,4.43-3.96,1.33-4.82-7.42-2.05-9.48-10.68-9.84-17.37-.5-9.33-.33-18.74-.45-28.09-.07-5.47-.15-10.94-.22-16.41-.04-3.21-5.04-3.22-5,0h0Z"/>
    </g>
  </g>
</svg>