<?xml version="1.0" encoding="UTF-8"?>
<svg id="Layer_2" data-name="Layer 2" xmlns="http://www.w3.org/2000/svg" viewBox="0 0 336.97 100.2">
  <defs>
    <style>
      .cls-1 {
        fill: #ED6C1F;
      }

      .cls-2 {
        fill: none;
        stroke: #eb6424;
        stroke-miterlimit: 10;
        stroke-width: 2px;
      }
    </style>
  </defs>
  <g id="Layer_1-2" data-name="Layer 1">
    <g>
      <g>
        <g>
          <rect class="cls-2" x="223.41" y="1" width="112.56" height="97.85"/>
          <path class="cls-1" d="m225.16,38.66c8.41.33,16.83.08,25.2-.78,4.13-.43,8.25-.99,12.35-1.71,3.87-.67,7.82-1.35,11.59-2.48,3.17-.95,6.2-2.47,8.12-5.26,1.8-2.62,2.67-6.12,2.52-9.28-.14-2.84-1.14-5.72-3.43-7.52-1.4-1.1-3.1-1.65-4.81-2.06-1.91-.46-3.85-.75-5.8-.4-3.91.7-7.05,3.5-11.18,3.24-3.49-.22-6.78-2.21-8.58-5.2-.83-1.38-2.99-.12-2.16,1.26,2.96,4.91,9.12,7.55,14.7,6.04,3.57-.96,6.57-3.46,10.45-2.92,3.13.44,6.47,1.42,7.71,4.62,1.06,2.73.66,5.89-.34,8.58-1.24,3.29-3.87,5.18-7.12,6.26s-6.94,1.73-10.42,2.37c-4.03.75-8.08,1.35-12.15,1.8-8.85.99-17.76,1.29-26.65.93-1.61-.06-1.61,2.44,0,2.5h0Z"/>
          <path class="cls-1" d="m259.11,36.67c.6,3.56,3.32,6.04,5.99,8.21,3.4,2.77,6.25,5.8,9.03,9.2,1.93,2.36,6.09,7.8,2.49,10.59-3.17,2.45-8.21,1.01-10.79-1.57-1.14-1.14-2.91.63-1.77,1.77,2.38,2.39,5.77,3.72,9.15,3.46s6.68-2.01,7.14-5.68-1.72-6.92-3.91-9.65c-2.49-3.12-5.07-6.19-8.17-8.73-2.74-2.24-6.12-4.5-6.75-8.24-.27-1.58-2.68-.91-2.41.66h0Z"/>
          <path class="cls-1" d="m258.94,96.65c1.24-1.19,2.48-2.39,3.71-3.58,1-.97,2.01-2,2.7-3.22,1.34-2.35,1.51-5.96-.41-8.09-1.04-1.16-2.74-1.07-4.17-1.32-1.58-.27-3.14-.62-4.69-1.05-3.1-.86-6.09-2.03-8.95-3.5-1.43-.73-2.7,1.42-1.26,2.16,4.99,2.56,10.37,4.3,15.93,5.05.6.08,1.13.04,1.45.6.3.51.48,1.11.56,1.7.17,1.22-.14,2.41-.79,3.44s-1.52,1.84-2.38,2.67c-1.16,1.13-2.33,2.25-3.49,3.38s.61,2.89,1.77,1.77h0Z"/>
          <path class="cls-1" d="m246.96,75.96c-1.52-.99-3.26-2.15-3.81-3.99-.45-1.5.2-2.81,1.51-3.57,3.18-1.85,7.34.47,10.36,1.65,1.76.68,3.52,1.47,5.32,2.04,1.28.41,2.81.64,4.05-.02,3.1-1.65,1.53-6.59.25-8.94-.77-1.42-2.93-.15-2.16,1.26.45.82.78,1.68.97,2.6.13.65.48,2.14-.03,2.71-.86.96-3.37-.37-4.23-.71-1.92-.75-3.84-1.49-5.77-2.24s-3.68-1.38-5.66-1.5c-2.93-.18-6.31,1.36-7.1,4.41-.98,3.79,2.21,6.61,5.04,8.45,1.35.88,2.61-1.28,1.26-2.16h0Z"/>
          <path class="cls-1" d="m264.31,65.28c1.61,0,1.61-2.5,0-2.5s-1.61,2.5,0,2.5h0Z"/>
          <path class="cls-1" d="m264.31,64.92c1.61,0,1.61-2.5,0-2.5s-1.61,2.5,0,2.5h0Z"/>
          <path class="cls-1" d="m244.65,38.62c-4.82.08-10.02,2.53-12.49,6.82-2.78,4.83,1.77,9.42,6.05,11.08,2.36.92,4.92,1.24,7.43,1.42,2.76.2,5.72.5,8.47.13,4.64-.63,7.09-5.6,5.66-9.88-1.97-5.93-8.35-7.95-13.81-9.32-1.56-.39-2.23,2.02-.66,2.41,3.96.99,8.48,2.08,11.01,5.59,1.88,2.6,2.04,7.39-1.66,8.56-2.01.63-4.53.24-6.59.15s-4.1-.19-6.11-.59-3.93-1.02-5.55-2.23c-1.47-1.09-2.88-2.93-2.53-4.87.38-2.09,2.64-3.89,4.35-4.92,1.96-1.18,4.16-1.8,6.44-1.83,1.61-.03,1.61-2.53,0-2.5h0Z"/>
          <path class="cls-1" d="m252.61,42.52c-3.29.5-6.01,2.87-7.11,5.98-.54,1.52-.78,3.49-.14,5.01s2.47,2.78,3.85,3.69,2.6-1.27,1.26-2.16c-.56-.37-1.1-.76-1.61-1.2-.42-.36-1-.78-1.22-1.3-.44-1.05-.07-2.57.33-3.57.89-2.24,2.95-3.69,5.29-4.04.67-.1,1.04-.94.87-1.54-.2-.71-.87-.98-1.54-.87h0Z"/>
          <path class="cls-1" d="m303.38,3.53c-2.55,1.72-5.25,3.59-6.49,6.53-1.11,2.64-.87,5.78,1.33,7.78,1.21,1.1,2.69,1.89,4.04,2.8,1.52,1.02,3.02,2.09,4.48,3.19,2.97,2.23,5.8,4.65,8.51,7.19,1.17,1.1,2.94-.66,1.77-1.77-4.48-4.2-9.32-8.03-14.46-11.4-1.17-.77-2.67-1.47-3.39-2.73-.62-1.09-.55-2.41-.19-3.57.84-2.69,3.43-4.37,5.64-5.85,1.33-.89.08-3.06-1.26-2.16h0Z"/>
          <path class="cls-1" d="m315.05,30.8c.47.85,1.09,2.16.25,2.99-.65.64-1.79.76-2.65.85-1.27.12-2.56.13-3.82-.13s-2.42-.72-3.63-1.05-2.46-.54-3.72-.67c-1.08-.11-2.28-.23-3.33.12-1.95.66-2.77,2.68-3.3,4.5-.45,1.55,1.96,2.21,2.41.66.25-.86.54-2.05,1.31-2.61.86-.61,2.54-.24,3.5-.11,2.71.36,5.19,1.61,7.92,1.82,2.1.17,4.84.06,6.61-1.25,2.17-1.61,1.76-4.3.6-6.39-.78-1.41-2.94-.15-2.16,1.26h0Z"/>
          <path class="cls-1" d="m296.28,37.13c-3.25-.98-6.69-1.1-10.01-.4-1.65.35-3.25.92-4.76,1.67-1.33.66-3.17,1.57-4.01,2.84-.94,1.41-.07,2.9.92,3.98,1.25,1.37,2.68,2.58,4.1,3.76,2.8,2.31,5.9,4.53,8.04,7.52s3.71,7.17,2.04,10.79c-.67,1.45,1.48,2.72,2.16,1.26,1.69-3.66,1.11-7.63-.7-11.13-1.94-3.77-5.21-6.49-8.44-9.12-1.72-1.4-3.44-2.79-4.99-4.38-.33-.34-1.09-.88-.91-1.44.08-.25.81-.61,1.01-.74.87-.58,1.8-1.1,2.76-1.52,3.83-1.66,8.15-1.87,12.13-.68,1.54.46,2.2-1.95.66-2.41h0Z"/>
          <path class="cls-1" d="m268.18,96.07c3.95-5.57,8.11-11,12.52-16.22,3.99-4.72,8.85-9.65,15.36-10.23,1.59-.14,1.6-2.64,0-2.5-6.92.61-12.2,5.23-16.56,10.28-4.79,5.56-9.25,11.42-13.49,17.4-.93,1.31,1.23,2.57,2.16,1.26h0Z"/>
          <path class="cls-1" d="m296.07,69.47c3.85.23,7.68.68,11.48,1.4,3.49.66,7.14,2.05,10.73,1.72,2.93-.27,5.58-1.6,8.19-2.86s5.31-2.57,8.2-2.01c1.57.3,2.25-2.1.66-2.41-6.26-1.21-10.81,3.86-16.67,4.73-3.59.53-7.42-1.03-10.91-1.67-3.86-.71-7.76-1.17-11.67-1.4-1.61-.09-1.6,2.41,0,2.5h0Z"/>
          <path class="cls-1" d="m304.59,96.83c-.85-.22-2.08-1.08-1.83-2.15.03-.08.03-.09,0-.02.03-.06.06-.12.1-.17.03-.04.05-.08.19-.19-.14.11.2-.12.19-.11.18-.1,0-.02.21-.1.55-.2.94-.23,1.55-.14,2.74.38,4.65,2.76,6.06,4.93.37.57,1.11.8,1.71.45.56-.33.82-1.14.45-1.71-1.09-1.69-2.33-3.28-3.96-4.48-1.48-1.09-3.44-1.89-5.31-1.69s-3.75,1.42-3.72,3.52,1.79,3.79,3.69,4.28c1.56.4,2.22-2.01.66-2.41h0Z"/>
          <path class="cls-1" d="m314.09,46.29c-4.67-.73-9.58.88-12.71,4.5-1.68,1.94-2.9,4.35-1.71,6.87,1,2.11,2.98,3.71,5.03,4.76,4.63,2.38,10.57,3.23,15.66,2.17,2.33-.49,4.83-1.44,6.37-3.34s1.43-4.44.15-6.56c-2.85-4.73-8.09-8.36-13.67-8.64-1.61-.08-1.6,2.42,0,2.5,3.86.19,7.25,2.34,9.79,5.15,1.18,1.31,3.07,3.4,2.23,5.3-.74,1.67-2.84,2.47-4.47,2.92-4.05,1.12-8.48.59-12.43-.7-1.76-.58-3.52-1.4-4.89-2.68-.64-.61-1.3-1.34-1.62-2.19-.43-1.16.18-2.25.85-3.18,2.38-3.3,6.74-5.09,10.75-4.46,1.57.25,2.25-2.16.66-2.41h0Z"/>
          <path class="cls-1" d="m309.46,48.94c1.71,1.46,2.18,4.13,2.16,6.27-.02,2.62-2.35,4.24-4.47,5.32-1.43.73-.17,2.89,1.26,2.16,2.88-1.47,5.57-3.8,5.71-7.25.06-1.48-.2-3.07-.61-4.48s-1.12-2.81-2.28-3.8c-.51-.44-1.26-.5-1.77,0-.45.45-.52,1.33,0,1.77h0Z"/>
        </g>
        <path class="cls-1" d="m257.45,94.63c-2.3,1.37-4.44,2.32-6.94,3.11-.62.2-1.09.88-.87,1.54s.87,1.08,1.54.87c2.63-.83,5.17-1.95,7.54-3.36.56-.33.82-1.14.45-1.71s-1.11-.81-1.71-.45h0Z"/>
        <path class="cls-1" d="m266.26,94.85c-.16.13-.31.26-.47.39-.08.06-.15.12-.23.18-.13.1.21-.16.08-.06-.04.03-.08.06-.12.09-.34.26-.69.5-1.04.74-.73.49-1.48.95-2.25,1.37-.57.32-.81,1.15-.45,1.71s1.1.79,1.71.45c1.61-.89,3.13-1.91,4.54-3.1.5-.42.47-1.34,0-1.77-.53-.49-1.23-.45-1.77,0h0Z"/>
        <path class="cls-1" d="m304.61,5.98c2.11-1.2,4.23-2.4,6.34-3.61.57-.32.81-1.15.45-1.71s-1.1-.79-1.71-.45c-2.11,1.2-4.23,2.4-6.34,3.61-.57.32-.81,1.15-.45,1.71s1.1.79,1.71.45h0Z"/>
        <path class="cls-1" d="m250.68,6.66l-3.85-5.41c-.38-.53-1.11-.84-1.71-.45-.53.34-.85,1.14-.45,1.71l3.85,5.41c.38.53,1.11.84,1.71.45.53-.34.85-1.14.45-1.71h0Z"/>
      </g>
      <g>
        <path class="cls-1" d="m8.16.27l5.85,22.46L19.84.27h8.16v31.06h-6.27v-8.4l.57-12.95-6.19,21.35h-4.25L5.68,9.98l.57,12.95v8.4H0V.27h8.16Z"/>
        <path class="cls-1" d="m39.54,31.33h-6.25V.27h6.25v31.06Z"/>
        <path class="cls-1" d="m53.51,19.34l-2.47,3.11v8.87h-6.25V.27h6.25v13.54l1.98-3.35L58.78.27h7.65l-8.87,13.65,9.01,17.4h-7.42l-5.65-11.99Z"/>
        <path class="cls-1" d="m77.6,19.34l-2.47,3.11v8.87h-6.25V.27h6.25v13.54l1.98-3.35L82.87.27h7.65l-8.87,13.65,9.01,17.4h-7.42l-5.65-11.99Z"/>
        <path class="cls-1" d="m108.96,17.89h-9.74v8.23h11.52v5.2h-17.77V.27h17.73v5.23h-11.48v7.34h9.74v5.05Z"/>
        <path class="cls-1" d="m120.59,26.12h10.97v5.2h-17.22V.27h6.25v25.85Z"/>
        <path class="cls-1" d="m141.42,26.12h10.97v5.2h-17.22V.27h6.25v25.85Z"/>
        <path class="cls-1" d="m171.99,17.89h-9.74v8.23h11.52v5.2h-17.77V.27h17.73v5.23h-11.48v7.34h9.74v5.05Z"/>
        <path class="cls-1" d="m186.75,19.98h-3.1v11.35h-6.25V.27h9.97c3.13,0,5.55.81,7.26,2.44,1.71,1.63,2.56,3.94,2.56,6.94,0,4.12-1.5,7.01-4.49,8.66l5.42,12.71v.3h-6.72l-4.66-11.35Zm-3.1-5.23h3.55c1.25,0,2.18-.42,2.81-1.25.62-.83.94-1.94.94-3.34,0-3.11-1.21-4.67-3.64-4.67h-3.66v9.26Z"/>
        <path class="cls-1" d="m126.94,65.42v-31.06h9.57c3.23,0,5.69.72,7.37,2.16,1.68,1.44,2.52,3.56,2.52,6.35,0,1.58-.35,2.94-1.04,4.07s-1.64,1.97-2.85,2.5c1.39.4,2.46,1.2,3.21,2.4.75,1.2,1.13,2.68,1.13,4.45,0,3.01-.83,5.29-2.48,6.83-1.65,1.54-4.04,2.3-7.18,2.3h-10.25Zm6.25-18.07h3.25c2.45,0,3.68-1.27,3.68-3.82,0-1.41-.28-2.42-.85-3.03-.57-.61-1.49-.92-2.76-.92h-3.32v7.76Zm0,4.56v8.3h4c1.12,0,1.97-.35,2.55-1.05s.87-1.69.87-2.96c0-2.79-1.01-4.22-3.02-4.29h-4.4Z"/>
        <path class="cls-1" d="m166.15,59.06h-8.53l-1.66,6.36h-6.61l9.67-31.06h5.72l9.74,31.06h-6.68l-1.66-6.36Zm-7.16-5.23h5.78l-2.89-11.07-2.89,11.07Z"/>
        <path class="cls-1" d="m186.75,54.07h-3.1v11.35h-6.25v-31.06h9.97c3.13,0,5.55.81,7.26,2.44,1.71,1.63,2.56,3.94,2.56,6.94,0,4.12-1.5,7.01-4.49,8.66l5.42,12.71v.3h-6.72l-4.66-11.35Zm-3.1-5.23h3.55c1.25,0,2.18-.42,2.81-1.25.62-.83.94-1.94.94-3.34,0-3.11-1.21-4.67-3.64-4.67h-3.66v9.26Z"/>
        <path class="cls-1" d="m65.03,93.16h-8.53l-1.66,6.36h-6.61l9.67-31.05h5.72l9.74,31.05h-6.68l-1.66-6.36Zm-7.16-5.23h5.78l-2.89-11.07-2.89,11.07Z"/>
        <path class="cls-1" d="m91.03,93.16h-8.53l-1.66,6.36h-6.61l9.67-31.05h5.72l9.74,31.05h-6.68l-1.66-6.36Zm-7.16-5.23h5.78l-2.89-11.07-2.89,11.07Z"/>
        <path class="cls-1" d="m111.64,88.17h-3.1v11.35h-6.25v-31.05h9.97c3.13,0,5.55.81,7.26,2.44,1.71,1.63,2.56,3.94,2.56,6.94,0,4.12-1.5,7.01-4.49,8.66l5.42,12.71v.3h-6.72l-4.66-11.35Zm-3.1-5.23h3.55c1.25,0,2.18-.42,2.81-1.25s.94-1.94.94-3.34c0-3.11-1.21-4.67-3.64-4.67h-3.66v9.26Z"/>
        <path class="cls-1" d="m148.07,99.51h-6.23v-13.29h-9.23v13.29h-6.25v-31.05h6.25v12.56h9.23v-12.56h6.23v31.05Z"/>
        <path class="cls-1" d="m173.23,68.46v21.5c-.03,3.23-.91,5.7-2.66,7.41-1.74,1.71-4.25,2.57-7.5,2.57s-5.85-.87-7.6-2.6c-1.75-1.74-2.63-4.24-2.63-7.53v-21.35h6.29v21.37c0,1.76.28,3.02.85,3.78.57.75,1.59,1.13,3.08,1.13s2.51-.37,3.06-1.12.84-1.97.85-3.68v-21.48h6.25Z"/>
        <path class="cls-1" d="m191.04,91.37c0-1.27-.32-2.22-.97-2.87s-1.82-1.32-3.52-2.02c-3.1-1.18-5.34-2.56-6.7-4.15-1.36-1.59-2.04-3.46-2.04-5.62,0-2.62.92-4.72,2.77-6.3,1.85-1.58,4.2-2.38,7.05-2.38,1.9,0,3.59.4,5.08,1.21,1.49.8,2.63,1.94,3.43,3.4.8,1.46,1.2,3.13,1.2,4.99h-6.23c0-1.45-.31-2.56-.93-3.32-.62-.76-1.51-1.14-2.67-1.14-1.09,0-1.94.32-2.55.97-.61.65-.91,1.52-.91,2.61,0,.85.34,1.63,1.02,2.31.68.69,1.88,1.41,3.61,2.14,3.02,1.1,5.21,2.44,6.58,4.03,1.37,1.59,2.05,3.62,2.05,6.08,0,2.7-.86,4.81-2.57,6.33-1.72,1.52-4.05,2.28-6.99,2.28-2,0-3.82-.41-5.46-1.24-1.64-.83-2.93-2-3.86-3.54-.93-1.54-1.39-3.35-1.39-5.44h6.27c0,1.79.35,3.09,1.04,3.9s1.83,1.22,3.4,1.22c2.18,0,3.27-1.16,3.27-3.48Z"/>
      </g>
    </g>
  </g>
</svg>